<?xml version="1.0" encoding="UTF-8"?>
<svg width="32px" height="32px" viewBox="0 0 32 32" version="1.1" xmlns="http://www.w3.org/2000/svg" xmlns:xlink="http://www.w3.org/1999/xlink">
    <title>Mail</title>
    <g id="页面-1" stroke="none" stroke-width="1" fill="none" fill-rule="evenodd">
        <g id="Home_4" transform="translate(-964.000000, -9521.000000)" fill="#807E76">
            <g id="联系方式" transform="translate(684.000000, 9521.000000)">
                <g id="Mail" transform="translate(280.000000, 0.000000)">
                    <path d="M16,0 C24.836,0 32,7.164 32,16 C32,24.836 24.836,32 16,32 C7.164,32 0,24.836 0,16 C0,7.164 7.164,0 16,0 Z M24.5,12.7578333 L16.2034339,17.2038964 C16.0756735,17.2726905 15.922361,17.2726905 15.7965661,17.2038964 L7.50786218,12.7617644 L7.5,21.0091918 C7.5,21.9271014 8.26459706,22.6779396 9.20019655,22.6779396 L22.7998034,22.6779396 C23.7354029,22.6779396 24.5,21.9271014 24.5,21.0091918 L24.5,12.7578333 Z M22.7998034,9.32206035 L9.20019655,9.32206035 C8.2704937,9.32206035 7.51572436,10.0650364 7.50786218,10.9770494 L7.50786218,10.9770494 L16.0029483,15.6353914 L24.5,10.9711527 C24.4882067,10.0630709 23.7275408,9.32206035 22.7998034,9.32206035 L22.7998034,9.32206035 Z" id="形状结合"></path>
                </g>
            </g>
        </g>
    </g>
</svg>