<?xml version="1.0" encoding="UTF-8"?>
<svg width="32px" height="32px" viewBox="0 0 32 32" version="1.1" xmlns="http://www.w3.org/2000/svg" xmlns:xlink="http://www.w3.org/1999/xlink">
    <title>Telegram</title>
    <g id="页面-1" stroke="none" stroke-width="1" fill="none" fill-rule="evenodd">
        <g id="Home_3_icon" transform="translate(-712.000000, -6622.000000)" fill="#807E76">
            <g id="联系方式" transform="translate(240.000000, 6497.000000)">
                <g id="icon" transform="translate(472.000000, 125.000000)">
                    <path d="M16,0 C24.836,0 32,7.164 32,16 C32,24.836 24.836,32 16,32 C7.164,32 0,24.836 0,16 C0,7.164 7.164,0 16,0 Z M24.493,9.5008 C24.797,8.3188 24.049,7.7688 23.273,8.1268 L23.273,8.1268 L6.265,14.6388 C5.101,15.1048 5.101,15.7368 6.043,16.0128 L6.043,16.0128 L10.419,17.3868 L20.531,11.0668 C21.001,10.7628 21.445,10.9288 21.085,11.2588 L21.085,11.2588 L12.885,18.5688 L12.581,23.0468 C13.023,23.0468 13.217,22.8548 13.467,22.6068 L13.467,22.6068 L15.599,20.5468 L20.003,23.7888 C20.835,24.2548 21.417,24.0068 21.611,23.0468 L21.611,23.0468 Z" id="Telegram"></path>
                </g>
            </g>
        </g>
    </g>
</svg>