<?xml version="1.0" encoding="UTF-8"?>
<svg width="32px" height="32px" viewBox="0 0 32 32" version="1.1" xmlns="http://www.w3.org/2000/svg" xmlns:xlink="http://www.w3.org/1999/xlink">
    <title>tw</title>
    <g id="页面-1" stroke="none" stroke-width="1" fill="none" fill-rule="evenodd">
        <g id="Home_3_icon" transform="translate(-768.000000, -6622.000000)" fill="#807E76">
            <g id="联系方式" transform="translate(240.000000, 6497.000000)">
                <g id="icon" transform="translate(528.000000, 125.000000)">
                    <path d="M16,0 C24.836,0 32,7.164 32,16 C32,24.836 24.836,32 16,32 C7.164,32 0,24.836 0,16 C0,7.164 7.164,0 16,0 Z M20.7992,7.9994 C18.4372,7.9994 16.5372,9.8134 16.5372,12.0354 C16.5372,12.3494 16.5772,12.6614 16.6432,12.9614 C13.1052,12.7874 9.9512,11.1874 7.8532,8.7374 C7.4832,9.3354 7.2712,10.0234 7.2712,10.7754 C7.2712,12.1754 8.0232,13.4114 9.1712,14.1374 C8.4732,14.1114 7.8112,13.9234 7.2432,13.6254 L7.2432,13.6754 C7.2432,15.6354 8.7092,17.2614 10.6632,17.6374 C10.3072,17.7234 9.9232,17.7734 9.5412,17.7734 C9.2652,17.7734 8.9992,17.7494 8.7372,17.7114 C9.2772,19.3114 10.8492,20.4754 12.7212,20.5114 C11.2552,21.5994 9.4212,22.2354 7.4292,22.2354 C7.0732,22.2354 6.7412,22.2254 6.4012,22.1874 C8.2872,23.3374 10.5312,23.9994 12.9472,23.9994 C20.7872,23.9994 25.0752,17.8514 25.0752,12.5134 C25.0752,12.3374 25.0752,12.1634 25.0652,11.9874 C25.8932,11.4134 26.6192,10.6994 27.1992,9.8994 C26.4332,10.2114 25.6032,10.4374 24.7432,10.5234 C25.6292,10.0234 26.3032,9.2374 26.6192,8.2994 C25.8012,8.7634 24.8772,9.0994 23.9132,9.2754 C23.1352,8.4854 22.0272,7.9994 20.7992,7.9994 Z" id="tw"></path>
                </g>
            </g>
        </g>
    </g>
</svg>