<?xml version="1.0" encoding="UTF-8"?>
<svg width="22px" height="22px" viewBox="0 0 22 22" version="1.1" xmlns="http://www.w3.org/2000/svg" xmlns:xlink="http://www.w3.org/1999/xlink">
    <title>Breed_icon_White</title>
    <defs>
        <rect id="path-1" x="0" y="0" width="22" height="22"></rect>
    </defs>
    <g id="Breed_icon_White" stroke="none" stroke-width="1" fill="none" fill-rule="evenodd">
        <g id="Breed_icon">
            <mask id="mask-2" fill="white">
                <use xlink:href="#path-1"></use>
            </mask>
            <use id="Mask" fill="#000000" fill-rule="nonzero" opacity="0" xlink:href="#path-1"></use>
            <path d="M14.5491987,6.48559217 C17.1105796,6.71835396 19.2814567,10.6469086 19.2814567,14.0421087 C19.2814567,17.5425214 16.434528,19.1499538 14.308786,19.1499538 C13.7304246,19.1499538 13.106928,19.0297988 12.4984765,18.7894118 C12.971728,18.5415023 13.414915,18.2410378 13.8130697,17.8955408 C14.8646055,16.9865991 16.1190185,15.3190892 16.1190185,12.5848957 C16.1190185,10.5493212 15.5331345,8.33341161 14.5491987,6.48559217 Z M9.05825942,2.85 C12.4534081,2.85 15.3979756,8.08547127 15.3979756,12.5848649 C15.3979756,17.0842584 11.7774079,19.15 9.05825942,19.15 C6.33911092,19.15 2.71854325,17.0842584 2.71854325,12.5848649 C2.71854325,11.8372338 2.79993029,11.0693202 2.95115099,10.3085953 L2.95115099,10.3085953 L3.68003991,11.0374842 L5.93345946,9.53529013 L8.186879,11.7887097 L10.4402985,9.53529013 L11.9427751,11.0374842 L10.4402985,8.03283928 L8.186879,10.2862588 L6.68468489,8.03283928 C5.93345946,8.53630922 5.18223403,9.03182019 4.43126534,9.53529013 L4.43126534,9.53529013 L3.43254117,8.53682271 C4.50777429,5.43692666 6.67159107,2.85 9.05825942,2.85 Z" id="fill" fill="#431216" mask="url(#mask-2)"></path>
        </g>
    </g>
</svg>