<?xml version="1.0" encoding="UTF-8"?>
<svg width="60px" height="60px" viewBox="0 0 60 60" version="1.1" xmlns="http://www.w3.org/2000/svg" xmlns:xlink="http://www.w3.org/1999/xlink">
    <title>Continuously Rising Price Floor_fill</title>
    <g id="页面-1" stroke="none" stroke-width="1" fill="none" fill-rule="evenodd">
        <g id="Home_4" transform="translate(-810.000000, -3835.000000)" fill-rule="nonzero">
            <g id="TOKENOMIC" transform="translate(-1113.000000, 2977.000000)">
                <g id="TOY" transform="translate(1785.000000, 794.000000)">
                    <g id="Continuously-Rising-Price-Floor_fill" transform="translate(138.000000, 64.000000)">
                        <rect id="矩形" fill="#000000" opacity="0" x="0" y="0" width="60" height="60"></rect>
                        <path d="M13.2754668,18.1575499 L13.2754668,43.605743 L39.3536412,43.605743 L39.3536412,46.8812097 L15.417622,46.8812097 C12.5173952,46.8812097 10.1317084,44.596899 10.0054591,41.6994213 L10,41.4646795 L10,18.1575499 L13.2754668,18.1575499 Z M46.7245332,13.1187903 C48.5335236,13.1187903 50,14.5852667 50,16.394257 L50,38.0625614 C50,39.8715517 48.5335236,41.3380281 46.7245332,41.3380281 L19.0075336,41.3380281 C17.1985432,41.3380281 15.7320668,39.8715517 15.7320668,38.0625614 L15.7320668,16.394257 C15.7320668,14.5852667 17.1985432,13.1187903 19.0075336,13.1187903 L46.7234414,13.1187903 L46.7245332,13.1187903 Z M43.1313462,20.4471012 C37.4855333,20.5060596 33.5637078,22.5881646 31.627907,26.7436401 L31.4968883,27.0340648 L31.3713288,27.3135714 C29.803472,30.6545474 26.8588274,32.2267715 22.2207665,32.0870182 L22.2185828,35.362485 L21.8440878,35.3515668 C27.8971503,35.6048695 32.1803691,33.3535321 34.3596462,28.6543291 L34.5015832,28.3377006 L34.6216836,28.0756633 C35.9777268,25.2260072 38.7323944,23.7596899 43.1324381,23.7192925 L43.1313462,20.4471012 Z" id="icon" fill="#431216"></path>
                    </g>
                </g>
            </g>
        </g>
    </g>
</svg>