<?xml version="1.0" encoding="UTF-8"?>
<svg width="60px" height="60px" viewBox="0 0 60 60" version="1.1" xmlns="http://www.w3.org/2000/svg" xmlns:xlink="http://www.w3.org/1999/xlink">
    <title>Fair Launch</title>
    <g id="页面-1" stroke="none" stroke-width="1" fill="none" fill-rule="evenodd">
        <g id="Home_4" transform="translate(-410.000000, -3835.000000)" fill-rule="nonzero">
            <g id="TOKENOMIC" transform="translate(-1113.000000, 2977.000000)">
                <g id="Fair-Launch" transform="translate(1385.000000, 794.000000)">
                    <g transform="translate(138.000000, 64.000000)">
                        <rect id="矩形" fill="#000000" opacity="0" x="0" y="0" width="60" height="60"></rect>
                        <path d="M30,9 C41.5981765,9 51,18.4018235 51,30 C51,41.5981765 41.5981765,51 30,51 C18.4018235,51 9,41.5981765 9,30 C9,18.4018235 18.4018235,9 30,9 Z M35.0375294,20.6648824 C33.8738823,20.0212941 33.7367647,19.9459412 32.814,20.4363529 L32.4001765,20.6636471 C32.0332941,21.1441765 31.9665883,21.2318824 31.8998824,21.6481765 L31.8529412,21.9829412 L31.8529412,40.4827059 L35.5588235,40.4827059 L35.5588235,26.4287647 L39.1399411,30.0111176 L41.7612353,27.3922941 L35.0375294,20.6648824 Z M28.173,20.117647 L24.4671177,20.117647 L24.4671177,34.1715883 L20.8847647,30.5892353 L18.2647059,33.2080588 L24.9884118,39.9354706 C26.1520588,40.5778235 26.2879412,40.6544118 27.2107059,40.1627647 L27.6257647,39.9367059 C27.992647,39.4561764 28.0593529,39.3684706 28.1248235,38.9521765 L28.173,38.6174117 L28.173,20.117647 Z" id="形状" fill="#431216" transform="translate(30.000000, 30.000000) rotate(90.000000) translate(-30.000000, -30.000000) "></path>
                    </g>
                </g>
            </g>
        </g>
    </g>
</svg>