<?xml version="1.0" encoding="UTF-8"?>
<svg width="60px" height="60px" viewBox="0 0 60 60" version="1.1" xmlns="http://www.w3.org/2000/svg" xmlns:xlink="http://www.w3.org/1999/xlink">
    <title>certified-supplier-fill</title>
    <g id="页面-1" stroke="none" stroke-width="1" fill="none" fill-rule="evenodd">
        <g id="Home_4" transform="translate(-810.000000, -3288.000000)" fill-rule="nonzero">
            <g id="TOKENOMIC" transform="translate(0.000000, 2923.000000)">
                <g id="TOY" transform="translate(672.000000, 301.000000)">
                    <g id="certified-supplier-fill" transform="translate(138.000000, 64.000000)">
                        <rect id="矩形" fill="#000000" opacity="0" x="0" y="0" width="60" height="60"></rect>
                        <path d="M47.020656,38.5707793 L49.6449743,41.2349733 L39.4766754,51.25 L33.3121443,45.1689585 L35.9389548,42.5072568 L39.4779216,46.0013634 L47.020656,38.5707793 L47.020656,38.5707793 Z M36.9732303,34.9557996 L41.6237317,40.3813845 L39.6100098,42.3951064 L35.8716646,38.6567613 L29.6410893,44.8873365 L35.8716646,51.1179118 L14.0933118,51.1179118 C12.6335087,51.1179118 11.307272,50.2680964 10.6971944,48.9418873 C10.0871169,47.6156783 10.3048165,46.0556712 11.2546617,44.9471501 L19.8179644,34.9557996 C22.3891981,36.5644436 25.3619961,37.4152953 28.3949743,37.4106462 C31.428376,37.4155298 34.4016377,36.564669 36.9732303,34.9557996 L36.9732303,34.9557996 Z M28.3949743,8.75 C35.2772677,8.75 40.8561248,14.3288571 40.8561248,21.2111506 C40.8561248,28.0934441 35.2772677,33.6723011 28.3949743,33.6723011 C21.5126809,33.6723011 15.9338238,28.093444 15.9338238,21.2111506 C15.9338238,14.3288571 21.5126809,8.75 28.3949743,8.75 Z" id="形状" fill="#431216"></path>
                    </g>
                </g>
            </g>
        </g>
    </g>
</svg>