<?xml version="1.0" encoding="UTF-8"?>
<svg width="60px" height="60px" viewBox="0 0 60 60" version="1.1" xmlns="http://www.w3.org/2000/svg" xmlns:xlink="http://www.w3.org/1999/xlink">
    <title>icon</title>
    <g id="页面-1" stroke="none" stroke-width="1" fill="none" fill-rule="evenodd">
        <g id="Home_4" transform="translate(-410.000000, -3288.000000)" fill-rule="nonzero">
            <g id="TOKENOMIC" transform="translate(0.000000, 2923.000000)">
                <g id="NFT" transform="translate(272.000000, 301.000000)">
                    <g id="icon" transform="translate(138.000000, 64.000000)">
                        <rect id="矩形" fill="#000000" opacity="0" x="0" y="0" width="60" height="60"></rect>
                        <path d="M30.04125,6.25000002 C35.9092755,6.25000002 40.66625,11.0069745 40.66625,16.875 L40.665,20 L46.25,20 C48.3210678,20 50,21.6789322 50,23.75 L50,46.25 C50,48.3210678 48.3210678,50 46.25,50 L13.75,50 C11.6789322,50 10,48.3210678 10,46.25 L10,23.75 C10,21.6789322 11.6789322,20 13.75,20 L19.415,20 L19.415,16.875 C19.415,14.0570748 20.5344164,11.3545645 22.5269904,9.36199044 C24.5195645,7.36941642 27.2220748,6.25000002 30.04,6.25000002 L30.04125,6.25000002 Z M32.23375,30 L28.48375,30 L28.48375,40 L32.23375,40 L32.23375,30 Z M30.04125,10 C26.2442924,10 23.16625,13.0780424 23.16625,16.875 L23.16625,20 L36.91625,20 L36.91625,16.875 C36.91625,13.0780424 33.8382076,10 30.04125,10 Z" id="形状结合" fill="#431216"></path>
                    </g>
                </g>
            </g>
        </g>
    </g>
</svg>