<?xml version="1.0" encoding="UTF-8"?>
<svg width="22px" height="22px" viewBox="0 0 22 22" version="1.1" xmlns="http://www.w3.org/2000/svg" xmlns:xlink="http://www.w3.org/1999/xlink">
    <title>Pool_icon</title>
    <defs>
        <rect id="path-1" x="0" y="0" width="22" height="22"></rect>
    </defs>
    <g id="Pool_icon" stroke="none" stroke-width="1" fill="none" fill-rule="evenodd">
        <g>
            <mask id="mask-2" fill="white">
                <use xlink:href="#path-1"></use>
            </mask>
            <use id="Mask" fill="#000000" fill-rule="nonzero" opacity="0" xlink:href="#path-1"></use>
            <path d="M3.61166667,13.35125 L6.20583333,14.5965417 L11.00275,16.9198333 L15.6287083,14.6785833 L18.3952083,13.3535417 C18.7178919,14.0355452 18.4307345,14.8501806 17.7517083,15.1790833 L11.60225,18.1573333 C11.2236302,18.3407644 10.7818698,18.3407644 10.40325,18.1573333 L4.25379167,15.1790833 C3.57398515,14.8496438 3.28726122,14.0334732 3.61166667,13.35125 Z M18.38925,10.4738333 C18.5485865,10.8020751 18.5709257,11.1801884 18.4513482,11.5249086 C18.3317707,11.8696288 18.0800826,12.1526867 17.7517083,12.31175 L11.6017917,15.29 C11.2231719,15.4734311 10.7814114,15.4734311 10.4027917,15.29 L4.25379167,12.31175 C3.59791302,11.9937615 3.30413925,11.2192122 3.58416667,10.54625 L10.395,13.7587083 L11.00275,14.0529583 L17.1522083,11.0747083 L17.149,11.0733333 L18.38925,10.4742917 L18.38925,10.4738333 Z M11.60225,3.991625 L17.75125,6.96941667 C18.2256117,7.19916053 18.5269014,7.67984812 18.5269014,8.20691667 C18.5269014,8.73398523 18.2256117,9.21467282 17.75125,9.44441667 L11.60225,12.4226667 C11.2236302,12.6060978 10.7818698,12.6060978 10.40325,12.4226667 L4.25379167,9.44441667 C3.77942997,9.21467282 3.47814028,8.73398523 3.47814028,8.20691667 C3.47814028,7.67984812 3.77942997,7.19916053 4.25379167,6.96941667 L10.40325,3.99208333 C10.7818698,3.80865221 11.2236302,3.80865221 11.60225,3.99208333 L11.60225,3.991625 Z" id="fill" fill="#431216" fill-rule="nonzero" mask="url(#mask-2)"></path>
        </g>
    </g>
</svg>