<?xml version="1.0" encoding="UTF-8"?>
<svg width="22px" height="22px" viewBox="0 0 22 22" version="1.1" xmlns="http://www.w3.org/2000/svg" xmlns:xlink="http://www.w3.org/1999/xlink">
    <title>Refine_icon</title>
    <g id="Refine_icon" stroke="none" stroke-width="1" fill="none" fill-rule="evenodd">
        <g fill-rule="nonzero">
            <rect id="bg" fill="#000000" opacity="0" x="0" y="0" width="22" height="22"></rect>
            <path d="M11.2204583,3.46179167 L11.2209167,3.46225 L12.8145417,3.72808333 C13.2561937,3.8019686 13.5798269,4.18412707 13.5799583,4.63191667 L13.5799583,6.0225 L14.4709583,6.0225 L14.4709583,5.32308333 C14.4709441,5.04485573 14.597295,4.78167984 14.8144151,4.60769858 C15.0315351,4.43371733 15.3159224,4.36776306 15.5874583,4.42841667 L17.2580833,4.8015 C17.886519,4.94187517 18.3333334,5.49957721 18.3333334,6.1435 L18.3333334,14.421 C18.3335268,14.9787624 17.9967561,15.4813836 17.4808333,15.6933333 L11.5683333,18.1202083 C11.2359448,18.2567394 10.8633155,18.2577265 10.5302083,18.1229583 L4.52558333,15.6910417 C4.00652356,15.4808544 3.66666667,14.9768765 3.66666667,14.416875 L3.66666667,6.14670833 C3.66666667,5.5010642 4.11590754,4.94238995 4.7465,4.80379167 L6.47533333,4.423375 C6.74654617,4.36366793 7.0302046,4.43013006 7.24666594,4.60410084 C7.46312727,4.77807162 7.58905165,5.04079271 7.58908333,5.3185 L7.58908333,6.02204167 L8.42783333,6.02204167 L8.42783333,4.63054167 C8.42792724,4.18289872 8.75132179,3.80079322 9.19279167,3.72670833 L10.7667083,3.46179167 C10.9169146,3.43666321 11.070252,3.43666321 11.2204583,3.46179167 Z M14.2066667,9.53394533 L12.76825,10.9725 L12.76825,10.9729583 L12.2833333,11.4583333 L12.8333333,11.457875 C12.8336267,12.1459813 12.4485827,12.7763099 11.8362252,13.0901708 C11.2238678,13.4040318 10.487324,13.3485679 9.928875,12.9465417 L8.35129167,13.2692083 C9.14753906,14.4342332 10.6115289,14.9422188 11.9582589,14.5207795 C13.3049889,14.0993401 14.2182454,12.8474303 14.2083333,11.4363333 L14.2066667,9.53394533 Z M11,8.24999939 C9.22808643,8.24999939 7.79166667,9.68641976 7.79166667,11.4583333 L7.79166667,13.3833333 L8.18216667,12.99375 L9.71620833,11.4583333 L9.16666667,11.4583333 C9.16659353,10.770231 9.55183485,10.1400286 10.1642873,9.82636171 C10.7767397,9.51269486 11.5132614,9.5683875 12.0715833,9.97058333 L13.6487083,9.64745833 C13.0510886,8.77244221 12.0596236,8.24934533 11,8.24999939 Z" id="fill" fill="#431216"></path>
        </g>
    </g>
</svg>