<?xml version="1.0" encoding="UTF-8"?>
<svg width="60px" height="60px" viewBox="0 0 60 60" version="1.1" xmlns="http://www.w3.org/2000/svg" xmlns:xlink="http://www.w3.org/1999/xlink">
    <title>TOY</title>
    <g id="页面-1" stroke="none" stroke-width="1" fill="none" fill-rule="evenodd">
        <g id="Home_4" transform="translate(-810.000000, -1930.000000)" fill-rule="nonzero">
            <g id="JOJO-METAVERSE" transform="translate(0.000000, 945.000000)">
                <g id="FUN-METAVERSE" transform="translate(0.000000, 740.000000)">
                    <g id="TOY" transform="translate(672.000000, 181.000000)">
                        <g transform="translate(138.000000, 64.000000)" id="nfc">
                            <g transform="translate(8.500000, 8.380000)">
                                <rect id="矩形" fill="#000000" opacity="0" x="10.2" y="2.73333333" width="19.6" height="19.6"></rect>
                                <path d="M21.5,0.62 C9.90078125,0.62 0.5,10.0207812 0.5,21.62 C0.5,33.2192187 9.90078125,42.62 21.5,42.62 C33.0992188,42.62 42.5,33.2192187 42.5,21.62 C42.5,10.0207812 33.0992188,0.62 21.5,0.62 Z M31.3478516,31.5621875 C30.9417969,32.0010547 30.29375,32.1241016 29.7564453,31.8575 C28.8130859,31.4104297 29.1371094,30.2537891 29.1371094,30.2537891 C30.4085938,27.5754687 31.0730469,24.6510547 31.08125,21.6897266 L31.08125,21.62 C31.0648438,18.6340625 30.4044922,15.6891406 29.1371094,12.9862109 C29.1371094,12.9862109 28.8130859,11.8254687 29.7564453,11.3825 C30.29375,11.1158984 30.9417969,11.2389453 31.3478516,11.6778125 C34.4035156,17.9532031 34.4035156,25.2867969 31.3478516,31.5621875 Z M19.9660156,27.0996875 C19.5230469,26.8002734 12.7349609,21.6241016 12.3699219,21.4723437 C12.0048828,21.3246875 11.8572266,21.685625 12.2222656,23.6461719 C12.5873047,25.6682422 11.9925781,26.2219531 11.4839844,26.3039844 C10.9835938,26.345 9.44550781,25.9389453 9.36347656,21.8373828 C9.28144531,17.7358203 10.3888672,17.0877734 10.9015625,17.0877734 C11.8572266,17.0877734 19.1703125,23.6420703 19.6666016,23.58875 C20.1136719,23.523125 20.3269531,20.7381641 19.4779297,18.5438281 C18.5058594,16.1690234 19.6009766,15.7629687 19.6009766,15.7629687 L19.6009766,15.7711719 C20.0439453,15.5660937 20.5648438,15.648125 20.9216797,15.9803516 C22.025,17.4692187 22.6607422,19.2533984 22.7427734,21.1073047 C22.8125,23.0022266 22.4105469,24.8848437 21.5697266,26.5828906 C20.9914063,27.3991016 20.4089844,27.3991016 19.9660156,27.0996875 L19.9660156,27.0996875 Z M26.5859375,29.5114062 C26.1798828,29.9502734 25.5318359,30.0733203 24.9945312,29.8067187 C24.0511719,29.3596484 24.3751953,28.2030078 24.3751953,28.2030078 C24.3751953,28.2030078 25.6712891,26.3408984 25.8722656,21.6897266 L25.8722656,21.62 C25.7369141,16.9401172 24.3710937,15.1846484 24.3710937,15.1846484 C24.3710937,15.1846484 24.0470703,14.0116016 24.9904297,13.5809375 C25.5236328,13.3143359 26.1716797,13.4291797 26.5818359,13.8639453 C27.865625,16.2428516 28.5054688,18.9170703 28.4316406,21.62 C28.4890625,24.3639453 27.8533203,27.0791797 26.5859375,29.5114062 Z" id="形状" fill="#431216"></path>
                            </g>
                        </g>
                    </g>
                </g>
            </g>
        </g>
    </g>
</svg>