<?xml version="1.0" encoding="UTF-8"?>
<svg width="60px" height="60px" viewBox="0 0 60 60" version="1.1" xmlns="http://www.w3.org/2000/svg" xmlns:xlink="http://www.w3.org/1999/xlink">
    <title>security-fill</title>
    <g id="页面-1" stroke="none" stroke-width="1" fill="none" fill-rule="evenodd">
        <g id="Home_4" transform="translate(-1210.000000, -3288.000000)" fill-rule="nonzero">
            <g id="TOKENOMIC" transform="translate(0.000000, 2923.000000)">
                <g id="Games" transform="translate(1072.000000, 301.000000)">
                    <g id="security-fill" transform="translate(138.000000, 64.000000)">
                        <rect id="矩形" fill="#000000" opacity="0" x="0" y="0" width="60" height="60"></rect>
                        <path d="M30.9378416,8.62290021 L46.7100818,12.8292354 C48.3035167,13.2541584 49.411988,14.6973257 49.411988,16.3464449 L49.411988,36.2934757 C49.411988,37.4532491 48.8598172,38.5437262 47.9245443,39.2295389 L32.1523041,50.795444 C30.8711921,51.734852 29.1288078,51.734852 27.8476958,50.795444 L12.0754556,39.2283257 C11.1405274,38.5427658 10.588012,37.4528217 10.588012,36.2934757 L10.588012,16.3464449 C10.588012,14.6973257 11.6964832,13.2541584 13.2899181,12.8292354 L29.0621583,8.62290021 C29.676649,8.45903326 30.3233509,8.45903326 30.9378416,8.62290021 L30.9378416,8.62290021 Z M37.2127667,19.2121396 L26.7545582,29.5647954 L22.7932994,25.6047499 L20.221211,28.1792648 L26.743639,34.698053 L39.7739358,21.798787 L37.2127667,19.2121396 Z" id="形状" fill="#431216"></path>
                    </g>
                </g>
            </g>
        </g>
    </g>
</svg>