<?xml version="1.0" encoding="UTF-8"?>
<svg width="22px" height="22px" viewBox="0 0 22 22" version="1.1" xmlns="http://www.w3.org/2000/svg" xmlns:xlink="http://www.w3.org/1999/xlink">
    <title>NFT Market_icon</title>
    <defs>
        <rect id="path-1" x="0" y="0" width="22" height="22"></rect>
    </defs>
    <g id="NFT-Market_icon" stroke="none" stroke-width="1" fill="none" fill-rule="evenodd">
        <g>
            <mask id="mask-2" fill="white">
                <use xlink:href="#path-1"></use>
            </mask>
            <use id="Mask" fill="#000000" fill-rule="nonzero" opacity="0" xlink:href="#path-1"></use>
            <path d="M7.15250067,16.6245609 C7.79136143,16.6245609 8.3092604,17.1424599 8.3092604,17.7813206 C8.3092604,18.4201814 7.79136143,18.9380804 7.15250067,18.9380804 C6.51363991,18.9380804 5.99574094,18.4201814 5.99574094,17.7813206 C5.99574094,17.1424599 6.51363991,16.6245609 7.15250067,16.6245609 Z M15.4811707,16.6245609 C16.1200315,16.6245609 16.6379304,17.1424599 16.6379304,17.7813206 C16.6379304,18.4201814 16.1200315,18.9380804 15.4811707,18.9380804 C14.84231,18.9380804 14.324411,18.4201814 14.324411,17.7813206 C14.324411,17.1424599 14.84231,16.6245609 15.4811707,16.6245609 L15.4811707,16.6245609 Z M3.22321922,3.4375 C4.17098865,3.4375 4.99924617,4.07737118 5.23829467,4.9944986 L5.26050446,5.08981559 L5.54691816,6.4450753 L17.2473115,6.4450753 C17.6647264,6.44506836 18.059985,6.63290012 18.3235988,6.95654036 C18.5872126,7.28018059 18.6911924,7.70526679 18.6067355,8.11404823 L17.2695212,14.5919027 C17.1363078,15.2366714 16.5684835,15.6991531 15.9100972,15.6991531 L7.18627805,15.6991531 C6.52789181,15.6991531 5.96006751,15.2366714 5.82685402,14.5919027 L4.51277497,8.22787338 L4.5039836,8.22972419 L3.90246853,5.37622931 C3.8396166,5.07907558 3.59085256,4.85730628 3.28846047,4.82885059 L3.22368192,4.82561167 L2.03545833,4.82561167 L2.03545833,3.4375 L3.22275653,3.4375 L3.22321922,3.4375 Z M14.7871149,10.1467064 L8.30926039,10.1467064 L8.30926039,11.5348181 L14.7871149,11.5348181 L14.7871149,10.1467064 L14.7871149,10.1467064 Z" id="fill" fill="#431216" fill-rule="nonzero" mask="url(#mask-2)"></path>
        </g>
    </g>
</svg>