<?xml version="1.0" encoding="UTF-8"?>
<svg width="22px" height="22px" viewBox="0 0 22 22" version="1.1" xmlns="http://www.w3.org/2000/svg" xmlns:xlink="http://www.w3.org/1999/xlink">
    <title>Mint_icon</title>
    <defs>
        <rect id="path-1" x="0" y="0" width="22" height="22"></rect>
    </defs>
    <g id="Mint_icon" stroke="none" stroke-width="1" fill="none" fill-rule="evenodd">
        <g>
            <mask id="mask-2" fill="white">
                <use xlink:href="#path-1"></use>
            </mask>
            <use id="Mask" fill="#000000" fill-rule="nonzero" opacity="0" xlink:href="#path-1"></use>
            <path d="M17.545,12.4545254 L17.5452885,17.3872597 C17.5452885,18.1440085 16.9318223,18.7574746 16.1750735,18.7574746 L11.5923896,18.7574746 L11.592,12.4545254 L17.545,12.4545254 Z M10.137,12.4545254 L10.1376781,18.7574746 L5.82538323,18.7574746 C5.06863441,18.7574746 4.45516828,18.1440085 4.45516828,17.3872597 L4.454,12.4545254 L10.137,12.4545254 Z M12.5828266,3.24252804 L12.7280694,3.24481443 C13.524452,3.27832992 14.2511618,3.70835091 14.6638498,4.39028717 C15.0765379,5.07222344 15.1203863,5.91549233 14.7806514,6.63655317 L17.629785,6.63655317 C18.3865339,6.63655317 19,7.2500193 19,8.00676812 L19,9.62955938 C19,10.3863082 18.3865339,10.9997743 17.629785,10.9997743 L11.592,10.9995254 L11.5923896,6.64340288 L10.1376781,6.64340288 L10.137,10.9995254 L4.37021495,10.9997743 C3.61346613,10.9997743 3,10.3863082 3,9.62955938 L3,8.00676812 C3,7.2500193 3.61346613,6.63655317 4.37021495,6.63655317 L6.99097943,6.63655317 C6.65104118,5.91544982 6.6947843,5.07202869 7.10749648,4.38996074 C7.52020867,3.70789278 8.24705082,3.27780774 9.04356142,3.2443577 L9.18880421,3.24252804 C9.8235104,3.24180212 10.4330141,3.49085369 10.8855871,3.9358595 C11.3382175,3.49065878 11.9479431,3.24158358 12.5828266,3.24252804 Z M9.18926094,4.61274568 L9.14404385,4.61274568 C8.58657221,4.61274568 8.13465216,5.06466573 8.13465216,5.62213737 C8.13465216,6.17960901 8.58657221,6.63152906 9.14404385,6.63152906 L10.1580029,6.63152906 L10.1580029,5.66689773 C10.1580029,5.54814576 10.1671377,5.43167749 10.1831235,5.31794965 C10.0351512,4.89571968 9.63666893,4.61297309 9.18926094,4.61274568 Z M12.6271303,4.61274568 L12.5823699,4.61274568 C12.1345952,4.61292823 11.7357531,4.89585342 11.5875938,5.31840638 C11.6044931,5.43167749 11.6127144,5.54814576 11.6127145,5.66689773 L11.6127145,6.63152915 L12.6266735,6.63152915 C13.1562587,6.63168606 13.5959198,6.22253209 13.6337815,5.69430203 L13.6365219,5.62213737 C13.6365219,5.06491662 13.184351,4.61274568 12.6271303,4.61274568 Z" id="fill" fill="#431216" fill-rule="nonzero" mask="url(#mask-2)"></path>
        </g>
    </g>
</svg>