<?xml version="1.0" encoding="UTF-8"?>
<svg width="22px" height="22px" viewBox="0 0 22 22" version="1.1" xmlns="http://www.w3.org/2000/svg" xmlns:xlink="http://www.w3.org/1999/xlink">
    <title>Breed_icon</title>
    <defs>
        <rect id="path-1" x="0" y="0" width="22" height="22"></rect>
    </defs>
    <g id="Breed_icon" stroke="none" stroke-width="1" fill="none" fill-rule="evenodd">
        <g>
            <mask id="mask-2" fill="white">
                <use xlink:href="#path-1"></use>
            </mask>
            <use id="Mask" fill="#000000" fill-rule="nonzero" opacity="0" xlink:href="#path-1"></use>
            <path d="M16.5347153,18.6151568 C16.3853348,18.6152266 16.2420718,18.5558249 16.1365698,18.4500711 L12.3651125,14.6725445 C12.1513493,14.4511843 12.1542863,14.0993921 12.3717156,13.8816318 C12.5891449,13.6638715 13.5490093,12.7216631 13.7664386,12.5039028 C13.983868,12.2861425 14.3356553,12.2826705 14.5573403,12.4960968 L18.3203006,16.2639125 C18.4262996,16.3697855 18.4858597,16.5134557 18.4858597,16.6632718 C18.4858597,16.8130879 18.4262996,16.9567582 18.3203006,17.0626312 L16.9352885,18.4500711 C16.8293378,18.555896 16.6856771,18.6152816 16.5359291,18.6151568 L16.5347153,18.6151568 Z M12.2370966,3.90474391 C12.2324834,3.83024489 12.2139328,3.75975288 12.182473,3.69474646 C12.1764037,3.68260787 12.1666928,3.67289702 12.1594097,3.66075843 C12.1327659,3.6093311 12.0979161,3.56259145 12.0562318,3.52237859 C12.0392377,3.5078123 12.019816,3.49810143 12.0003943,3.48596284 C11.9676201,3.46168568 11.9372737,3.43376696 11.8984302,3.41677294 L11.8644422,3.40463435 L11.8632283,3.40463435 C9.87452704,2.57668657 7.58207429,3.04354303 6.07555259,4.58329062 C6.06220016,4.59664306 6.05613086,4.61485093 6.04399227,4.6306311 C6.02942598,4.64276969 6.0112181,4.64762512 5.99786567,4.66219141 L3.16472071,7.51597194 C2.9448833,7.73825068 2.9448833,8.09605346 3.16472071,8.3183322 L4.88354388,10.0590048 C4.98800855,10.1648673 5.1305346,10.2244591 5.27926164,10.2244591 C5.42798867,10.2244591 5.57051473,10.1648673 5.6749794,10.0590048 L6.65456294,9.06728268 L7.84657164,10.2738577 C7.95087277,10.3800248 8.09346003,10.4398283 8.2422894,10.4398283 C8.39111878,10.4398283 8.53370604,10.3800248 8.63800717,10.2738577 C8.85704543,10.0517237 9.89327235,8.9764282 9.99752831,8.87063766 C10.2165666,8.64850365 10.2165666,8.29162528 9.99752831,8.06949127 L8.82736904,6.88233799 C8.77992625,6.77501785 8.78304397,6.65209032 8.83586605,6.54731313 L8.83950762,6.53153298 C9.04497212,6.14130658 9.3067314,5.78343256 9.61637685,5.46940709 C9.68920833,5.3965756 9.76810911,5.33345497 9.84336832,5.26669278 C10.3661359,4.81506928 11.0221035,4.54654452 11.711496,4.50196213 C11.7212069,4.50196213 11.7297039,4.49589285 11.7394148,4.49589285 C11.8024326,4.49021057 11.8640138,4.4737889 11.9214935,4.44733851 C11.9299905,4.44248308 11.9360598,4.43519992 11.9457707,4.43155836 C12.0014448,4.40199325 12.0515545,4.36297335 12.0938613,4.31624184 C12.0987168,4.31138641 12.1011445,4.30410325 12.1047861,4.30046168 C12.1435889,4.25791979 12.1755317,4.20959599 12.199467,4.15722641 C12.2043224,4.14751554 12.2031086,4.13659081 12.2067502,4.12687996 C12.2308474,4.05570052 12.2415805,3.98015653 12.2370966,3.90474391 Z M5.68039561,18.6746348 C5.51424533,18.5957477 5.39669594,18.4411532 5.36509006,18.2599623 C5.33348418,18.0787713 5.39175087,17.8935085 5.5213802,17.7630273 L7.07754635,16.2056473 L6.49368057,15.6229954 L4.94601142,17.1682368 C4.81510965,17.3005995 4.62726065,17.3597311 4.44414349,17.3262163 C4.26102632,17.2927015 4.10629791,17.17087 4.03076237,17.0007244 C3.45310715,15.7131083 3.72709646,14.2027905 4.72023381,13.2001345 C5.62221452,12.3122148 6.93961232,11.9926618 8.14816924,12.3686417 L12.3675402,8.15048455 C11.988134,6.94241974 12.3081471,5.62359182 13.1990331,4.72376298 C13.8329167,4.08683199 14.6953764,3.73013296 15.5939752,3.73321433 C16.0758769,3.73321433 16.562634,3.83764651 17.0020507,4.0355054 C17.1720108,4.11128974 17.2935678,4.26613254 17.3268353,4.44922535 C17.3601029,4.63231816 17.3007863,4.82002525 17.1683492,4.95075445 L15.6000445,6.51905918 L16.1839103,7.10413882 L17.7643536,5.52490935 C17.8941822,5.39463121 18.0793433,5.33577821 18.2605646,5.36718991 C18.4417859,5.39860161 18.5963381,5.51633824 18.6747472,5.68271092 C19.2856191,6.97821688 19.0207476,8.51747932 18.0119807,9.53428285 C17.3789392,10.1700988 16.5178957,10.5263173 15.6206801,10.5235773 C15.2540949,10.5235773 14.8862959,10.4628844 14.5391325,10.3475678 L10.3440387,14.5378062 C10.7446119,15.7480228 10.4411473,17.1002608 9.5307537,18.0106544 C8.89778903,18.646585 8.03669543,19.0028243 7.13945312,18.9999831 C6.6360085,18.9993184 6.13759845,18.8882844 5.68039561,18.6746348 Z" id="fill" fill="#431216" fill-rule="nonzero" mask="url(#mask-2)"></path>
        </g>
    </g>
</svg>