<?xml version="1.0" encoding="UTF-8"?>
<svg width="22px" height="22px" viewBox="0 0 22 22" version="1.1" xmlns="http://www.w3.org/2000/svg" xmlns:xlink="http://www.w3.org/1999/xlink">
    <title>Help Center_icon</title>
    <defs>
        <rect id="path-1" x="0" y="0" width="22" height="22"></rect>
    </defs>
    <g id="Help-Center_icon" stroke="none" stroke-width="1" fill="none" fill-rule="evenodd">
        <g>
            <mask id="mask-2" fill="white">
                <use xlink:href="#path-1"></use>
            </mask>
            <use id="Mask" fill="#000000" fill-rule="nonzero" opacity="0" xlink:href="#path-1"></use>
            <path d="M17.4166667,4.58333333 C18.1760582,4.58333333 18.7916667,5.1989418 18.7916667,5.95833333 L18.7916667,15.125 C18.7916667,15.8843915 18.1760582,16.5 17.4166667,16.5 L10.27675,16.5 L7.12616667,18.5647917 C6.98529216,18.6570825 6.80515063,18.6646798 6.65700561,18.5845781 C6.50886059,18.5044765 6.4165788,18.3495805 6.41666667,18.1811667 L6.41666667,16.5 L4.58333333,16.5 C3.8239418,16.5 3.20833333,15.8843915 3.20833333,15.125 L3.20833333,5.95833333 C3.20833333,5.1989418 3.8239418,4.58333333 4.58333333,4.58333333 L17.4166667,4.58333333 L17.4166667,4.58333333 Z M11.5866667,10.5416667 L7.79166667,10.5416667 L7.79166667,11.9166667 L11.5866667,11.9166667 L11.5866667,10.5416667 L11.5866667,10.5416667 Z M14.2083333,7.79166667 L7.79166667,7.79166667 L7.79166667,9.16666667 L14.2083333,9.16666667 L14.2083333,7.79166667 Z" id="fill" fill="#431216" fill-rule="nonzero" mask="url(#mask-2)"></path>
        </g>
    </g>
</svg>