<?xml version="1.0" encoding="UTF-8"?>
<svg width="22px" height="22px" viewBox="0 0 22 22" version="1.1" xmlns="http://www.w3.org/2000/svg" xmlns:xlink="http://www.w3.org/1999/xlink">
    <title>Gamebase_icon</title>
    <defs>
        <rect id="path-1" x="0" y="0" width="22" height="22"></rect>
    </defs>
    <g id="Gamebase_icon" stroke="none" stroke-width="1" fill="none" fill-rule="evenodd">
        <g>
            <mask id="mask-2" fill="white">
                <use xlink:href="#path-1"></use>
            </mask>
            <use id="Mask" fill="#000000" fill-rule="nonzero" opacity="0" xlink:href="#path-1"></use>
            <path d="M14.4324972,4.97152275 C18.1816562,4.97152275 21.6325866,16.9858732 18.3094684,16.9858732 C16.1792645,16.9858732 14.304685,13.4923387 11.109379,13.4923387 C7.1898037,13.4923387 6.80636698,17.0284773 3.90928957,17.0284773 C0.500963196,17.0284773 3.09981205,4.97152275 7.65844855,4.97152275 C10.2572974,6.07922881 11.9188565,6.20704105 14.4324972,4.97152275 Z M7.91407304,6.9313104 C6.67855474,6.9313104 5.6986609,7.91120423 5.6986609,9.14672253 C5.6986609,10.3822408 6.67855474,11.3621347 7.91407304,11.3621347 C9.10698728,11.3621347 10.1294852,10.3822408 10.1294852,9.14672253 C10.1294852,7.91120423 9.14959135,6.9313104 7.91407304,6.9313104 Z M14.2054766,9.77581344 C13.8001331,9.77581344 13.4715372,10.1044093 13.4715372,10.5097528 C13.4715372,10.9150964 13.8001331,11.2436922 14.2054766,11.2436922 C14.6108202,11.2436922 14.939416,10.9150964 14.939416,10.5097528 C14.939416,10.1044093 14.6108202,9.77581344 14.2054766,9.77581344 Z M7.91407304,7.74078792 C8.6383424,7.74078792 9.27740359,8.33724505 9.27740359,9.10411846 C9.27740359,9.87099188 8.68094647,10.467449 7.91407304,10.467449 C7.14719961,10.467449 6.55074249,9.8709919 6.55074249,9.10411846 C6.55074249,8.33724503 7.14719961,7.74078792 7.91407304,7.74078792 Z M12.8422984,8.41278314 C12.4369549,8.41278314 12.1083591,8.741379 12.1083591,9.14672253 C12.1083591,9.55206607 12.4369549,9.88066193 12.8422984,9.88066193 C13.247642,9.88066193 13.5762378,9.55206607 13.5762378,9.14672253 C13.5762378,8.741379 13.247642,8.41278314 12.8422984,8.41278314 Z M15.5686548,8.41278314 C15.1633113,8.41278314 14.8347154,8.741379 14.8347154,9.14672253 C14.8347154,9.55206607 15.1633113,9.88066193 15.5686548,9.88066193 C15.9739984,9.88066193 16.3025942,9.55206607 16.3025942,9.14672253 C16.3025942,8.741379 15.9739984,8.41278314 15.5686548,8.41278314 Z M14.2054766,7.04975284 C13.8001331,7.04975284 13.4715372,7.3783487 13.4715372,7.78369223 C13.4715372,8.18903577 13.8001331,8.51763162 14.2054766,8.51763162 C14.6108202,8.51763162 14.939416,8.18903577 14.939416,7.78369223 C14.939416,7.3783487 14.6108202,7.04975284 14.2054766,7.04975284 Z" id="fill" fill="#431216" fill-rule="nonzero" mask="url(#mask-2)"></path>
        </g>
    </g>
</svg>