<?xml version="1.0" encoding="UTF-8"?>
<svg width="1680px" height="541px" viewBox="0 0 1680 541" version="1.1" xmlns="http://www.w3.org/2000/svg" xmlns:xlink="http://www.w3.org/1999/xlink">
    <title>PAETNERS_bg</title>
    <defs>
        <rect id="path-1" x="0.0003" y="0" width="1679.9997" height="541"></rect>
        <path d="M0.0003,-2.27373675e-13 L1680,-2.27373675e-13 L1680,510.951 L1970.6003,530 L1970.4003,533 L1680,513.922 L1680,510.951 L551.8003,437 L737.5003,329.199 L737.3993,329 L737.6003,326.199 L727.8993,325.6 L737.5003,320 L737.3993,319.8 L737.6003,317.001 L0.1993,268 L0.0003,271.001 L732.0003,319.6 L722.4993,325.1 L0.1993,277.1 L0.0003,280.1 L717.9003,327.801 L532.3003,435.5 L532.1003,435.5 L531.8993,438.501 L541.8003,439.2 L531.8993,444.9 L531.5003,444.9 L531.3003,447.9 L1680,522.851 L1680,523.187 L1964.0813,541.388 L1680,522.851 L1680,519.823 L537.1993,445.199 L547.0993,439.5 L1680,513.922 L1680,519.823 L1970.6003,538.8 L1970.3993,541.793 L1970.5,541.7997 L1970.3993,541.799 L1970.3993,541.8 L1970.3843,541.799 L0,541.7997 L0.0003,541 L1680,541 L1680,523.187 L506.4,447.9997 L704.2,327.6997 L0,286.8997 L0.0003,-2.27373675e-13 Z M723.3003,328.1 L732.1003,328.7 L546.3993,436.501 L537.6003,435.9 L723.3003,328.1 Z" id="path-3"></path>
    </defs>
    <g id="页面-1" stroke="none" stroke-width="1" fill="none" fill-rule="evenodd">
        <g id="Home_4" transform="translate(0.000000, -7959.000000)">
            <g id="JOJO-PAETNERS" transform="translate(0.000000, 7959.000000)">
                <g id="PAETNERS_bg" transform="translate(0.000000, -0.000000)">
                    <mask id="mask-2" fill="white">
                        <use xlink:href="#path-1"></use>
                    </mask>
                    <use id="Mask" fill="#F1EFEB" opacity="0" xlink:href="#path-1"></use>
                    <g id="fill" mask="url(#mask-2)">
                        <g transform="translate(0.000000, 0.000000)">
                            <mask id="mask-4" fill="white">
                                <use xlink:href="#path-3"></use>
                            </mask>
                            <use id="形状结合" stroke="none" fill="#F1EFEB" fill-rule="evenodd" xlink:href="#path-3"></use>
                            <rect id="fill_1" stroke="none" fill="#FAD551" fill-rule="evenodd" x="1506" y="387" width="14" height="14"></rect>
                            <rect id="fill_1" stroke="none" fill="#000000" fill-rule="evenodd" opacity="0.12" x="1376" y="437" width="14" height="14"></rect>
                            <path d="M272,453 L285,453 L285,466 L472,466 L472,467 L272,467 L272,453 Z" id="fill_2" stroke="none" fill="#FAD551" fill-rule="evenodd"></path>
                        </g>
                    </g>
                    <path d="M982.6,150 L982.6,99.6 L1003.8,99.6 C1015.26667,99.6 1024.86667,97.5333333 1032.6,93.4 C1040.33333,89.2666667 1046.06667,83.8333333 1049.8,77.1 C1053.53333,70.3666667 1055.4,62.9333333 1055.4,54.8 C1055.4,46 1053.46667,38.2 1049.6,31.4 C1045.73333,24.6 1039.93333,19.2666667 1032.2,15.4 C1024.46667,11.5333333 1015,9.6 1003.8,9.6 L1003.8,9.6 L948.4,9.6 L948.4,150 L982.6,150 Z M1001.2,72.4 L982.6,72.4 L982.6,37.2 L1001.2,37.2 C1007.73333,37.2 1012.6,38.7333333 1015.8,41.8 C1019,44.8666667 1020.6,49.2 1020.6,54.8 C1020.6,60.4 1019,64.7333333 1015.8,67.8 C1012.6,70.8666667 1007.73333,72.4 1001.2,72.4 L1001.2,72.4 Z M1099.8,150 L1108.2,125.2 L1160.6,125.2 L1169,150 L1205.2,150 L1154.4,9.6 L1114.8,9.6 L1064,150 L1099.8,150 Z M1151.8,98.8 L1117.2,98.8 L1134.4,47.4 L1151.8,98.8 Z M1254.8,150 L1254.8,97 L1263,97 L1292.2,150 L1330.8,150 L1298.4,94.4 C1308.66667,91.3333333 1316.43333,86.1333333 1321.7,78.8 C1326.96667,71.4666667 1329.6,63.1333333 1329.6,53.8 C1329.6,45.5333333 1327.66667,38.0333333 1323.8,31.3 C1319.93333,24.5666667 1314.1,19.2666667 1306.3,15.4 C1298.5,11.5333333 1289.06667,9.6 1278,9.6 L1278,9.6 L1220.6,9.6 L1220.6,150 L1254.8,150 Z M1276,72.8 L1254.8,72.8 L1254.8,38 L1276,38 C1282.26667,38 1286.96667,39.5333333 1290.1,42.6 C1293.23333,45.6666667 1294.8,49.8666667 1294.8,55.2 C1294.8,60.8 1293.23333,65.1333333 1290.1,68.2 C1286.96667,71.2666667 1282.26667,72.8 1276,72.8 L1276,72.8 Z M1414.8,150 L1414.8,37 L1452,37 L1452,9.6 L1343.4,9.6 L1343.4,37 L1380.6,37 L1380.6,150 L1414.8,150 Z M1503.4,150 L1503.4,63.4 L1560.6,150 L1594.8,150 L1594.8,9.6 L1560.6,9.6 L1560.6,96.6 L1503.4,9.6 L1469.2,9.6 L1469.2,150 L1503.4,150 Z M1705.6,150 L1705.6,122.6 L1653.8,122.6 L1653.8,91.8 L1699.6,91.8 L1699.6,65.4 L1653.8,65.4 L1653.8,37 L1705.6,37 L1705.6,9.6 L1619.6,9.6 L1619.6,150 L1705.6,150 Z M1762,150 L1762,97 L1770.2,97 L1799.4,150 L1838,150 L1805.6,94.4 C1815.86667,91.3333333 1823.63333,86.1333333 1828.9,78.8 C1834.16667,71.4666667 1836.8,63.1333333 1836.8,53.8 C1836.8,45.5333333 1834.86667,38.0333333 1831,31.3 C1827.13333,24.5666667 1821.3,19.2666667 1813.5,15.4 C1805.7,11.5333333 1796.26667,9.6 1785.2,9.6 L1785.2,9.6 L1727.8,9.6 L1727.8,150 L1762,150 Z M1783.2,72.8 L1762,72.8 L1762,38 L1783.2,38 C1789.46667,38 1794.16667,39.5333333 1797.3,42.6 C1800.43333,45.6666667 1802,49.8666667 1802,55.2 C1802,60.8 1800.43333,65.1333333 1797.3,68.2 C1794.16667,71.2666667 1789.46667,72.8 1783.2,72.8 L1783.2,72.8 Z M1909,151.4 C1919.53333,151.4 1928.66667,149.466667 1936.4,145.6 C1944.13333,141.733333 1950.03333,136.533333 1954.1,130 C1958.16667,123.466667 1960.2,116.2 1960.2,108.2 C1960.2,99.8 1958.13333,92.9333333 1954,87.6 C1949.86667,82.2666667 1944.96667,78.2 1939.3,75.4 C1933.63333,72.6 1926.26667,69.6666667 1917.2,66.6 C1908.13333,63.6666667 1901.46667,60.9333333 1897.2,58.4 C1892.93333,55.8666667 1890.8,52.3333333 1890.8,47.8 C1890.8,43.6666667 1892.06667,40.5 1894.6,38.3 C1897.13333,36.1 1900.46667,35 1904.6,35 C1909.4,35 1913.33333,36.3 1916.4,38.9 C1919.46667,41.5 1921.13333,45.0666667 1921.4,49.6 L1921.4,49.6 L1958.4,49.6 C1957.73333,36.4 1952.66667,26.1 1943.2,18.7 C1933.73333,11.3 1921.26667,7.6 1905.8,7.6 C1890.6,7.6 1878.26667,11.3 1868.8,18.7 C1859.33333,26.1 1854.6,36.3333333 1854.6,49.4 C1854.6,58.2 1856.66667,65.3333333 1860.8,70.8 C1864.93333,76.2666667 1869.86667,80.4 1875.6,83.2 C1881.33333,86 1888.73333,88.8 1897.8,91.6 C1904.06667,93.4666667 1908.9,95.1333333 1912.3,96.6 C1915.7,98.0666667 1918.56667,99.9333333 1920.9,102.2 C1923.23333,104.466667 1924.4,107.333333 1924.4,110.8 C1924.4,114.933333 1922.93333,118.166667 1920,120.5 C1917.06667,122.833333 1913.06667,124 1908,124 C1903.06667,124 1899.06667,122.633333 1896,119.9 C1892.93333,117.166667 1891.13333,113.2 1890.6,108 L1890.6,108 L1854.2,108 C1854.46667,117.2 1857.03333,125.066667 1861.9,131.6 C1866.76667,138.133333 1873.26667,143.066667 1881.4,146.4 C1889.53333,149.733333 1898.73333,151.4 1909,151.4 Z" id="PARTNERS" stroke="#D4D1CC" stroke-width="1.2" fill-rule="nonzero" mask="url(#mask-2)"></path>
                </g>
            </g>
        </g>
    </g>
</svg>