<?xml version="1.0" encoding="UTF-8"?>
<svg width="1680px" height="632px" viewBox="0 0 1680 632" version="1.1" xmlns="http://www.w3.org/2000/svg" xmlns:xlink="http://www.w3.org/1999/xlink">
    <title>FUN METAVERSE_bg</title>
    <defs>
        <rect id="path-1" x="0" y="0" width="1680" height="632"></rect>
    </defs>
    <g id="页面-1" stroke="none" stroke-width="1" fill="none" fill-rule="evenodd">
        <g id="Home_4" transform="translate(0.000000, -1324.000000)">
            <g id="JOJO-METAVERSE" transform="translate(0.000000, 642.000000)">
                <g id="FUN-METAVERSE" transform="translate(0.000000, 682.000000)">
                    <g id="FUN-METAVERSE_bg">
                        <mask id="mask-2" fill="white">
                            <use xlink:href="#path-1"></use>
                        </mask>
                        <use id="Mask" fill="#D8D8D8" opacity="0" xlink:href="#path-1"></use>
                        <path d="M948.9,190 L948.9,133.2 L991.7,133.2 L991.7,106.6 L948.9,106.6 L948.9,77 L1006.1,77 L1006.1,49.6 L914.7,49.6 L914.7,190 L948.9,190 Z M1081.5,191.4 C1092.56667,191.4 1102.6,189.2 1111.6,184.8 C1120.6,180.4 1127.76667,173.866667 1133.1,165.2 C1138.43333,156.533333 1141.1,145.933333 1141.1,133.4 L1141.1,133.4 L1141.1,49.6 L1106.9,49.6 L1106.9,133.6 C1106.9,142 1104.76667,148.466667 1100.5,153 C1096.23333,157.533333 1090.1,159.8 1082.1,159.8 C1074.1,159.8 1068.03333,157.533333 1063.9,153 C1059.76667,148.466667 1057.7,142 1057.7,133.6 L1057.7,133.6 L1057.7,49.6 L1023.5,49.6 L1023.5,133.4 C1023.5,145.933333 1026.03333,156.566667 1031.1,165.3 C1036.16667,174.033333 1043.06667,180.566667 1051.8,184.9 C1060.53333,189.233333 1070.43333,191.4 1081.5,191.4 Z M1199.3,190 L1199.3,103.4 L1256.5,190 L1290.7,190 L1290.7,49.6 L1256.5,49.6 L1256.5,136.6 L1199.3,49.6 L1165.1,49.6 L1165.1,190 L1199.3,190 Z M1392.1,190 L1392.1,105.6 L1423.7,190 L1451.3,190 L1482.7,105.8 L1482.7,190 L1516.9,190 L1516.9,49.6 L1476.7,49.6 L1437.7,146.8 L1398.3,49.6 L1357.9,49.6 L1357.9,190 L1392.1,190 Z M1627.5,190 L1627.5,162.6 L1575.7,162.6 L1575.7,131.8 L1621.5,131.8 L1621.5,105.4 L1575.7,105.4 L1575.7,77 L1627.5,77 L1627.5,49.6 L1541.5,49.6 L1541.5,190 L1627.5,190 Z M1713.5,190 L1713.5,77 L1750.7,77 L1750.7,49.6 L1642.1,49.6 L1642.1,77 L1679.3,77 L1679.3,190 L1713.5,190 Z M1794.5,190 L1802.9,165.2 L1855.3,165.2 L1863.7,190 L1899.9,190 L1849.1,49.6 L1809.5,49.6 L1758.7,190 L1794.5,190 Z M1846.5,138.8 L1811.9,138.8 L1829.1,87.4 L1846.5,138.8 Z M1997.3,190 L2047.1,49.6 L2010.9,49.6 L1975.9,155.6 L1941.1,49.6 L1904.7,49.6 L1954.5,190 L1997.3,190 Z M2147.3,190 L2147.3,162.6 L2095.5,162.6 L2095.5,131.8 L2141.3,131.8 L2141.3,105.4 L2095.5,105.4 L2095.5,77 L2147.3,77 L2147.3,49.6 L2061.3,49.6 L2061.3,190 L2147.3,190 Z M2203.7,190 L2203.7,137 L2211.9,137 L2241.1,190 L2279.7,190 L2247.3,134.4 C2257.56667,131.333333 2265.33333,126.133333 2270.6,118.8 C2275.86667,111.466667 2278.5,103.133333 2278.5,93.8 C2278.5,85.5333333 2276.56667,78.0333333 2272.7,71.3 C2268.83333,64.5666667 2263,59.2666667 2255.2,55.4 C2247.4,51.5333333 2237.96667,49.6 2226.9,49.6 L2226.9,49.6 L2169.5,49.6 L2169.5,190 L2203.7,190 Z M2224.9,112.8 L2203.7,112.8 L2203.7,78 L2224.9,78 C2231.16667,78 2235.86667,79.5333333 2239,82.6 C2242.13333,85.6666667 2243.7,89.8666667 2243.7,95.2 C2243.7,100.8 2242.13333,105.133333 2239,108.2 C2235.86667,111.266667 2231.16667,112.8 2224.9,112.8 L2224.9,112.8 Z M2350.7,191.4 C2361.23333,191.4 2370.36667,189.466667 2378.1,185.6 C2385.83333,181.733333 2391.73333,176.533333 2395.8,170 C2399.86667,163.466667 2401.9,156.2 2401.9,148.2 C2401.9,139.8 2399.83333,132.933333 2395.7,127.6 C2391.56667,122.266667 2386.66667,118.2 2381,115.4 C2375.33333,112.6 2367.96667,109.666667 2358.9,106.6 C2349.83333,103.666667 2343.16667,100.933333 2338.9,98.4 C2334.63333,95.8666667 2332.5,92.3333333 2332.5,87.8 C2332.5,83.6666667 2333.76667,80.5 2336.3,78.3 C2338.83333,76.1 2342.16667,75 2346.3,75 C2351.1,75 2355.03333,76.3 2358.1,78.9 C2361.16667,81.5 2362.83333,85.0666667 2363.1,89.6 L2363.1,89.6 L2400.1,89.6 C2399.43333,76.4 2394.36667,66.1 2384.9,58.7 C2375.43333,51.3 2362.96667,47.6 2347.5,47.6 C2332.3,47.6 2319.96667,51.3 2310.5,58.7 C2301.03333,66.1 2296.3,76.3333333 2296.3,89.4 C2296.3,98.2 2298.36667,105.333333 2302.5,110.8 C2306.63333,116.266667 2311.56667,120.4 2317.3,123.2 C2323.03333,126 2330.43333,128.8 2339.5,131.6 C2345.76667,133.466667 2350.6,135.133333 2354,136.6 C2357.4,138.066667 2360.26667,139.933333 2362.6,142.2 C2364.93333,144.466667 2366.1,147.333333 2366.1,150.8 C2366.1,154.933333 2364.63333,158.166667 2361.7,160.5 C2358.76667,162.833333 2354.76667,164 2349.7,164 C2344.76667,164 2340.76667,162.633333 2337.7,159.9 C2334.63333,157.166667 2332.83333,153.2 2332.3,148 L2332.3,148 L2295.9,148 C2296.16667,157.2 2298.73333,165.066667 2303.6,171.6 C2308.46667,178.133333 2314.96667,183.066667 2323.1,186.4 C2331.23333,189.733333 2340.43333,191.4 2350.7,191.4 Z M2508.9,190 L2508.9,162.6 L2457.1,162.6 L2457.1,131.8 L2502.9,131.8 L2502.9,105.4 L2457.1,105.4 L2457.1,77 L2508.9,77 L2508.9,49.6 L2422.9,49.6 L2422.9,190 L2508.9,190 Z" id="FUNMETAVERSE" stroke="#D4D1CC" stroke-width="1.2" fill-opacity="0" fill="#000000" fill-rule="nonzero" mask="url(#mask-2)"></path>
                    </g>
                </g>
            </g>
        </g>
    </g>
</svg>