<?xml version="1.0" encoding="UTF-8"?>
<svg width="734px" height="559px" viewBox="0 0 734 559" version="1.1" xmlns="http://www.w3.org/2000/svg" xmlns:xlink="http://www.w3.org/1999/xlink">
    <title>How To Buy$JOJO?</title>
    <g id="页面-1" stroke="none" stroke-width="1" fill="none" fill-rule="evenodd">
        <g id="Home_3_icon" transform="translate(0.000000, -3973.000000)" fill="#000000">
            <g id="How-To-Buy$JOJO?" transform="translate(0.000000, 3710.000000)">
                <g transform="translate(-1202.600000, 263.600000)">
                    <path d="M34.2,158.4 L34.2,100.6 L87.4,100.6 L87.4,158.4 L121.6,158.4 L121.6,18 L87.4,18 L87.4,73 L34.2,73 L34.2,18 L1.25055521e-12,18 L1.25055521e-12,158.4 L34.2,158.4 Z M197,160 C207.933333,160 217.833333,157.666667 226.7,153 C235.566667,148.333333 242.566667,141.633333 247.7,132.9 C252.833333,124.166667 255.4,114.066667 255.4,102.6 C255.4,91.1333333 252.866667,81.0333333 247.8,72.3 C242.733333,63.5666667 235.8,56.8666667 227,52.2 C218.2,47.5333333 208.333333,45.2 197.4,45.2 C186.466667,45.2 176.6,47.5333333 167.8,52.2 C159,56.8666667 152.066667,63.5666667 147,72.3 C141.933333,81.0333333 139.4,91.1333333 139.4,102.6 C139.4,114.2 141.9,124.333333 146.9,133 C151.9,141.666667 158.766667,148.333333 167.5,153 C176.233333,157.666667 186.066667,160 197,160 Z M197,130.4 C190.466667,130.4 185.033333,128 180.7,123.2 C176.366667,118.4 174.2,111.533333 174.2,102.6 C174.2,93.5333333 176.4,86.6333333 180.8,81.9 C185.2,77.1666667 190.733333,74.8 197.4,74.8 C203.933333,74.8 209.433333,77.2 213.9,82 C218.366667,86.8 220.6,93.6666667 220.6,102.6 C220.6,111.533333 218.3,118.4 213.7,123.2 C209.1,128 203.533333,130.4 197,130.4 Z M330,158.4 L348.2,86 L365.8,158.4 L403.6,158.4 L433.8,46.8 L401.6,46.8 L386,126.2 L367,46.8 L330.8,46.8 L312,126.6 L296.2,46.8 L262,46.8 L292.4,158.4 L330,158.4 Z M553,158.4 L553,45.4 L590.2,45.4 L590.2,18 L481.6,18 L481.6,45.4 L518.8,45.4 L518.8,158.4 L553,158.4 Z M658.2,160 C669.133333,160 679.033333,157.666667 687.9,153 C696.766667,148.333333 703.766667,141.633333 708.9,132.9 C714.033333,124.166667 716.6,114.066667 716.6,102.6 C716.6,91.1333333 714.066667,81.0333333 709,72.3 C703.933333,63.5666667 697,56.8666667 688.2,52.2 C679.4,47.5333333 669.533333,45.2 658.6,45.2 C647.666667,45.2 637.8,47.5333333 629,52.2 C620.2,56.8666667 613.266667,63.5666667 608.2,72.3 C603.133333,81.0333333 600.6,91.1333333 600.6,102.6 C600.6,114.2 603.1,124.333333 608.1,133 C613.1,141.666667 619.966667,148.333333 628.7,153 C637.433333,157.666667 647.266667,160 658.2,160 Z M658.2,130.4 C651.666667,130.4 646.233333,128 641.9,123.2 C637.566667,118.4 635.4,111.533333 635.4,102.6 C635.4,93.5333333 637.6,86.6333333 642,81.9 C646.4,77.1666667 651.933333,74.8 658.6,74.8 C665.133333,74.8 670.633333,77.2 675.1,82 C679.566667,86.8 681.8,93.6666667 681.8,102.6 C681.8,111.533333 679.5,118.4 674.9,123.2 C670.3,128 664.733333,130.4 658.2,130.4 Z M842.6,158.4 C857.266667,158.4 868.7,154.966667 876.9,148.1 C885.1,141.233333 889.2,131.933333 889.2,120.2 C889.2,112.066667 886.733333,104.833333 881.8,98.5 C876.866667,92.1666667 870.333333,88.1333333 862.2,86.4 C869.4,84.2666667 875.166667,80.4666667 879.5,75 C883.833333,69.5333333 886,62.6666667 886,54.4 C886,43.2 881.966667,34.3333333 873.9,27.8 C865.833333,21.2666667 854.666667,18 840.4,18 L840.4,18 L777.2,18 L777.2,158.4 L842.6,158.4 Z M833.8,74.8 L811.4,74.8 L811.4,45.4 L833.8,45.4 C839.4,45.4 843.7,46.6666667 846.7,49.2 C849.7,51.7333333 851.2,55.4 851.2,60.2 C851.2,65 849.7,68.6333333 846.7,71.1 C843.7,73.5666667 839.4,74.8 833.8,74.8 L833.8,74.8 Z M836.6,130.8 L811.4,130.8 L811.4,99.8 L836.2,99.8 C841.933333,99.8 846.433333,101.2 849.7,104 C852.966667,106.8 854.6,110.666667 854.6,115.6 C854.6,120.533333 853.033333,124.3 849.9,126.9 C846.766667,129.5 842.333333,130.8 836.6,130.8 L836.6,130.8 Z M951.2,159.6 C958.4,159.6 964.966667,158.1 970.9,155.1 C976.833333,152.1 981.533333,148.133333 985,143.2 L985,143.2 L985,158.4 L1019.2,158.4 L1019.2,46.8 L985,46.8 L985,107.4 C985,114.866667 983.066667,120.666667 979.2,124.8 C975.333333,128.933333 970.066667,131 963.4,131 C956.866667,131 951.666667,128.933333 947.8,124.8 C943.933333,120.666667 942,114.866667 942,107.4 L942,107.4 L942,46.8 L908,46.8 L908,112 C908,121.733333 909.8,130.2 913.4,137.4 C917,144.6 922.066667,150.1 928.6,153.9 C935.133333,157.7 942.666667,159.6 951.2,159.6 Z M1087.8,211.4 L1157.8,46.8 L1120.8,46.8 L1095.2,116.6 L1069.4,46.8 L1031.2,46.8 L1076.6,154.6 L1051,211.4 L1087.8,211.4 Z M1227.6,175.8 L1227.6,159.6 C1237.73333,159.2 1246.5,157.033333 1253.9,153.1 C1261.3,149.166667 1266.9,144.1 1270.7,137.9 C1274.5,131.7 1276.4,124.933333 1276.4,117.6 C1276.4,108 1274.03333,100.433333 1269.3,94.9 C1264.56667,89.3666667 1259.2,85.4 1253.2,83 C1247.2,80.6 1238.66667,77.8666667 1227.6,74.8 L1227.6,74.8 L1227.6,43.8 C1233.6,45.9333333 1237,50.6 1237.8,57.8 L1237.8,57.8 L1274.4,57.8 C1273.46667,45.2666667 1268.93333,35.4666667 1260.8,28.4 C1252.66667,21.3333333 1241.6,17.2666667 1227.6,16.2 L1227.6,16.2 L1227.6,2.84217094e-13 L1214.8,2.84217094e-13 L1214.8,16.2 C1200.66667,17.1333333 1189.1,21.2666667 1180.1,28.6 C1171.1,35.9333333 1166.6,45.6666667 1166.6,57.8 C1166.6,67.5333333 1168.93333,75.2 1173.6,80.8 C1178.26667,86.4 1183.7,90.4666667 1189.9,93 C1196.1,95.5333333 1204.4,98.1333333 1214.8,100.8 L1214.8,100.8 L1214.8,132.4 C1207.86667,130.133333 1204,125 1203.2,117 L1203.2,117 L1166.8,117 C1167.33333,129.533333 1171.93333,139.433333 1180.6,146.7 C1189.26667,153.966667 1200.66667,158.2 1214.8,159.4 L1214.8,159.4 L1214.8,175.8 L1227.6,175.8 Z M1214.8,70.6 C1210.93333,68.8666667 1207.96667,66.8666667 1205.9,64.6 C1203.83333,62.3333333 1202.8,59.5333333 1202.8,56.2 C1202.8,52.3333333 1203.86667,49.3 1206,47.1 C1208.13333,44.9 1211.06667,43.4666667 1214.8,42.8 L1214.8,42.8 L1214.8,70.6 Z M1227.6,133 L1227.6,104.6 C1231.86667,106.2 1235.1,108.1 1237.3,110.3 C1239.5,112.5 1240.6,115.333333 1240.6,118.8 C1240.6,122.533333 1239.43333,125.666667 1237.1,128.2 C1234.76667,130.733333 1231.6,132.333333 1227.6,133 L1227.6,133 Z M1343.6,159.8 C1357.73333,159.8 1368.96667,155.8 1377.3,147.8 C1385.63333,139.8 1389.8,128.4 1389.8,113.6 L1389.8,113.6 L1389.8,18 L1355.6,18 L1355.6,113.6 C1355.6,118.666667 1354.46667,122.533333 1352.2,125.2 C1349.93333,127.866667 1346.73333,129.2 1342.6,129.2 C1338.06667,129.2 1334.6,127.7 1332.2,124.7 C1329.8,121.7 1328.6,117.266667 1328.6,111.4 L1328.6,111.4 L1294.6,111.4 C1294.6,126.866667 1299.06667,138.8 1308,147.2 C1316.93333,155.6 1328.8,159.8 1343.6,159.8 Z M1483.8,159.8 C1497,159.8 1509.06667,156.733333 1520,150.6 C1530.93333,144.466667 1539.6,135.9 1546,124.9 C1552.4,113.9 1555.6,101.533333 1555.6,87.8 C1555.6,74.0666667 1552.43333,61.7333333 1546.1,50.8 C1539.76667,39.8666667 1531.1,31.3333333 1520.1,25.2 C1509.1,19.0666667 1497,16 1483.8,16 C1470.6,16 1458.5,19.0666667 1447.5,25.2 C1436.5,31.3333333 1427.76667,39.8666667 1421.3,50.8 C1414.83333,61.7333333 1411.6,74.0666667 1411.6,87.8 C1411.6,101.533333 1414.83333,113.9 1421.3,124.9 C1427.76667,135.9 1436.5,144.466667 1447.5,150.6 C1458.5,156.733333 1470.6,159.8 1483.8,159.8 Z M1483.8,128.6 C1472.46667,128.6 1463.43333,124.9 1456.7,117.5 C1449.96667,110.1 1446.6,100.2 1446.6,87.8 C1446.6,75.2666667 1449.96667,65.3333333 1456.7,58 C1463.43333,50.6666667 1472.46667,47 1483.8,47 C1495,47 1503.96667,50.7 1510.7,58.1 C1517.43333,65.5 1520.8,75.4 1520.8,87.8 C1520.8,100.066667 1517.43333,109.933333 1510.7,117.4 C1503.96667,124.866667 1495,128.6 1483.8,128.6 Z M1616.4,159.8 C1630.53333,159.8 1641.76667,155.8 1650.1,147.8 C1658.43333,139.8 1662.6,128.4 1662.6,113.6 L1662.6,113.6 L1662.6,18 L1628.4,18 L1628.4,113.6 C1628.4,118.666667 1627.26667,122.533333 1625,125.2 C1622.73333,127.866667 1619.53333,129.2 1615.4,129.2 C1610.86667,129.2 1607.4,127.7 1605,124.7 C1602.6,121.7 1601.4,117.266667 1601.4,111.4 L1601.4,111.4 L1567.4,111.4 C1567.4,126.866667 1571.86667,138.8 1580.8,147.2 C1589.73333,155.6 1601.6,159.8 1616.4,159.8 Z M1756.6,159.8 C1769.8,159.8 1781.86667,156.733333 1792.8,150.6 C1803.73333,144.466667 1812.4,135.9 1818.8,124.9 C1825.2,113.9 1828.4,101.533333 1828.4,87.8 C1828.4,74.0666667 1825.23333,61.7333333 1818.9,50.8 C1812.56667,39.8666667 1803.9,31.3333333 1792.9,25.2 C1781.9,19.0666667 1769.8,16 1756.6,16 C1743.4,16 1731.3,19.0666667 1720.3,25.2 C1709.3,31.3333333 1700.56667,39.8666667 1694.1,50.8 C1687.63333,61.7333333 1684.4,74.0666667 1684.4,87.8 C1684.4,101.533333 1687.63333,113.9 1694.1,124.9 C1700.56667,135.9 1709.3,144.466667 1720.3,150.6 C1731.3,156.733333 1743.4,159.8 1756.6,159.8 Z M1756.6,128.6 C1745.26667,128.6 1736.23333,124.9 1729.5,117.5 C1722.76667,110.1 1719.4,100.2 1719.4,87.8 C1719.4,75.2666667 1722.76667,65.3333333 1729.5,58 C1736.23333,50.6666667 1745.26667,47 1756.6,47 C1767.8,47 1776.76667,50.7 1783.5,58.1 C1790.23333,65.5 1793.6,75.4 1793.6,87.8 C1793.6,100.066667 1790.23333,109.933333 1783.5,117.4 C1776.76667,124.866667 1767.8,128.6 1756.6,128.6 Z M1889.8,108 L1890.8,93 C1904.26667,92.8666667 1915.1,89.3 1923.3,82.3 C1931.5,75.3 1935.6,65.5333333 1935.6,53 C1935.6,39.4 1931.3,28.8666667 1922.7,21.4 C1914.1,13.9333333 1902.66667,10.2 1888.4,10.2 C1878.13333,10.2 1869.36667,12.1 1862.1,15.9 C1854.83333,19.7 1849.36667,24.8666667 1845.7,31.4 C1842.03333,37.9333333 1840.33333,45.2666667 1840.6,53.4 L1840.6,53.4 L1872.8,53.4 C1872.8,48.7333333 1874.13333,45.0333333 1876.8,42.3 C1879.46667,39.5666667 1883.2,38.2 1888,38.2 C1892.53333,38.2 1896.06667,39.5333333 1898.6,42.2 C1901.13333,44.8666667 1902.4,48.5333333 1902.4,53.2 C1902.4,59.8666667 1899.7,64.4666667 1894.3,67 C1888.9,69.5333333 1881.06667,70.8 1870.8,70.8 L1870.8,70.8 L1858.8,70.8 L1859.8,108 L1889.8,108 Z M1875.2,160 C1881.06667,160 1885.9,158.233333 1889.7,154.7 C1893.5,151.166667 1895.4,146.8 1895.4,141.6 C1895.4,136.266667 1893.5,131.8 1889.7,128.2 C1885.9,124.6 1881.06667,122.8 1875.2,122.8 C1869.2,122.8 1864.3,124.6 1860.5,128.2 C1856.7,131.8 1854.8,136.266667 1854.8,141.6 C1854.8,146.8 1856.7,151.166667 1860.5,154.7 C1864.3,158.233333 1869.2,160 1875.2,160 Z" id="HowToBuy$JOJO?" stroke="#D4D1CC" stroke-width="1.2" fill-opacity="0" fill-rule="nonzero"></path>
                    <path d="M1442.6,544.4 L1455.6,544.4 L1455.6,557.4 L1842.6,557.4 L1842.6,558.4 L1442.6,558.4 L1442.6,544.4 Z" id="fill" opacity="0.12"></path>
                </g>
            </g>
        </g>
    </g>
</svg>