<?xml version="1.0" encoding="UTF-8"?>
<svg width="1680px" height="1178px" viewBox="0 0 1680 1178" version="1.1" xmlns="http://www.w3.org/2000/svg" xmlns:xlink="http://www.w3.org/1999/xlink">
    <title>GAMEBASE_bg</title>
    <defs>
        <rect id="path-1" x="5.45696821e-12" y="0" width="1680" height="1178"></rect>
    </defs>
    <g id="页面-1" stroke="none" stroke-width="1" fill="none" fill-rule="evenodd">
        <g id="Home_4" transform="translate(0.000000, -6760.000000)">
            <g id="GAMEFI" transform="translate(0.000000, 6760.000000)">
                <g id="GAMEBASE_bg" transform="translate(-0.000000, 0.000000)">
                    <mask id="mask-2" fill="white">
                        <use xlink:href="#path-1"></use>
                    </mask>
                    <use id="Mask" fill="#F1EFEB" opacity="0" xlink:href="#path-1"></use>
                    <path d="M704.2,214.3003 L506.4,94.0003 L1680,18.811 L1680,0.199 L1970.5,0.199 L1970.399,0.199 L1970.6003,3.2 L1680,22.175 L1680,28.076 L547.0993,102.5 L537.1993,96.801 L1680,22.175 L1680,19.147 L1964.081,0.612 L1680,18.811 L1680,19.147 L531.3003,94.1 L531.5003,97.1 L531.8993,97.1 L541.8003,102.8 L531.8993,103.499 L532.1003,106.5 L532.3003,106.5 L717.9003,214.199 L9.09494702e-13,261.9 L0.1993,264.9 L722.4993,216.9 L732.0003,222.4 L9.09494702e-13,270.999 L0.1993,274 L737.6003,224.999 L737.3993,222.2 L737.5003,222 L727.8993,216.4 L737.6003,215.801 L737.3993,213 L737.5003,212.801 L551.8003,105 L1680,31.047 L1680,28.076 L1970.4003,9 L1970.6003,12 L1680,31.047 L1680,1178 L9.09494702e-13,1178 L9.09494702e-13,255.1003 L704.2,214.3003 Z M546.3993,105.499 L732.1003,213.3 L723.3003,213.9 L537.6003,106.1 L546.3993,105.499 Z M9.09494702e-13,0 L1680,0 L1680,0.199 L9.09494702e-13,0.2 L9.09494702e-13,0 Z" id="fill" fill="#F1EFEB" mask="url(#mask-2)"></path>
                    <path d="M934.2,464.4 C945.933333,464.4 956.466667,462.133333 965.8,457.6 C975.133333,453.066667 982.833333,447.133333 988.9,439.8 C994.966667,432.466667 999.266667,424.533333 1001.8,416 L1001.8,416 L1001.8,384.2 L927.4,384.2 L927.4,409.4 L970.8,409.4 C968.133333,417.4 963.9,423.533333 958.1,427.8 C952.3,432.066667 945.2,434.2 936.8,434.2 C924.533333,434.2 914.9,430.566667 907.9,423.3 C900.9,416.033333 897.4,405.933333 897.4,393 C897.4,380.866667 900.733333,371.166667 907.4,363.9 C914.066667,356.633333 922.933333,353 934,353 C940.4,353 945.966667,354.233333 950.7,356.7 C955.433333,359.166667 959.066667,362.733333 961.6,367.4 L961.6,367.4 L999.4,367.4 C995.666667,353 988.033333,341.733333 976.5,333.6 C964.966667,325.466667 950.8,321.4 934,321.4 C920.133333,321.4 907.8,324.433333 897,330.5 C886.2,336.566667 877.766667,345.033333 871.7,355.9 C865.633333,366.766667 862.6,379.133333 862.6,393 C862.6,406.866667 865.633333,419.2 871.7,430 C877.766667,440.8 886.233333,449.233333 897.1,455.3 C907.966667,461.366667 920.333333,464.4 934.2,464.4 Z M1047.4,463.4 L1055.8,438.6 L1108.2,438.6 L1116.6,463.4 L1152.8,463.4 L1102,323 L1062.4,323 L1011.6,463.4 L1047.4,463.4 Z M1099.4,412.2 L1064.8,412.2 L1082,360.8 L1099.4,412.2 Z M1202.4,463.4 L1202.4,379 L1234,463.4 L1261.6,463.4 L1293,379.2 L1293,463.4 L1327.2,463.4 L1327.2,323 L1287,323 L1248,420.2 L1208.6,323 L1168.2,323 L1168.2,463.4 L1202.4,463.4 Z M1437.8,463.4 L1437.8,436 L1386,436 L1386,405.2 L1431.8,405.2 L1431.8,378.8 L1386,378.8 L1386,350.4 L1437.8,350.4 L1437.8,323 L1351.8,323 L1351.8,463.4 L1437.8,463.4 Z M1525.4,463.4 C1540.06667,463.4 1551.5,459.966667 1559.7,453.1 C1567.9,446.233333 1572,436.933333 1572,425.2 C1572,417.066667 1569.53333,409.833333 1564.6,403.5 C1559.66667,397.166667 1553.13333,393.133333 1545,391.4 C1552.2,389.266667 1557.96667,385.466667 1562.3,380 C1566.63333,374.533333 1568.8,367.666667 1568.8,359.4 C1568.8,348.2 1564.76667,339.333333 1556.7,332.8 C1548.63333,326.266667 1537.46667,323 1523.2,323 L1523.2,323 L1460,323 L1460,463.4 L1525.4,463.4 Z M1516.6,379.8 L1494.2,379.8 L1494.2,350.4 L1516.6,350.4 C1522.2,350.4 1526.5,351.666667 1529.5,354.2 C1532.5,356.733333 1534,360.4 1534,365.2 C1534,370 1532.5,373.633333 1529.5,376.1 C1526.5,378.566667 1522.2,379.8 1516.6,379.8 L1516.6,379.8 Z M1519.4,435.8 L1494.2,435.8 L1494.2,404.8 L1519,404.8 C1524.73333,404.8 1529.23333,406.2 1532.5,409 C1535.76667,411.8 1537.4,415.666667 1537.4,420.6 C1537.4,425.533333 1535.83333,429.3 1532.7,431.9 C1529.56667,434.5 1525.13333,435.8 1519.4,435.8 L1519.4,435.8 Z M1618.4,463.4 L1626.8,438.6 L1679.2,438.6 L1687.6,463.4 L1723.8,463.4 L1673,323 L1633.4,323 L1582.6,463.4 L1618.4,463.4 Z M1670.4,412.2 L1635.8,412.2 L1653,360.8 L1670.4,412.2 Z M1790,464.8 C1800.53333,464.8 1809.66667,462.866667 1817.4,459 C1825.13333,455.133333 1831.03333,449.933333 1835.1,443.4 C1839.16667,436.866667 1841.2,429.6 1841.2,421.6 C1841.2,413.2 1839.13333,406.333333 1835,401 C1830.86667,395.666667 1825.96667,391.6 1820.3,388.8 C1814.63333,386 1807.26667,383.066667 1798.2,380 C1789.13333,377.066667 1782.46667,374.333333 1778.2,371.8 C1773.93333,369.266667 1771.8,365.733333 1771.8,361.2 C1771.8,357.066667 1773.06667,353.9 1775.6,351.7 C1778.13333,349.5 1781.46667,348.4 1785.6,348.4 C1790.4,348.4 1794.33333,349.7 1797.4,352.3 C1800.46667,354.9 1802.13333,358.466667 1802.4,363 L1802.4,363 L1839.4,363 C1838.73333,349.8 1833.66667,339.5 1824.2,332.1 C1814.73333,324.7 1802.26667,321 1786.8,321 C1771.6,321 1759.26667,324.7 1749.8,332.1 C1740.33333,339.5 1735.6,349.733333 1735.6,362.8 C1735.6,371.6 1737.66667,378.733333 1741.8,384.2 C1745.93333,389.666667 1750.86667,393.8 1756.6,396.6 C1762.33333,399.4 1769.73333,402.2 1778.8,405 C1785.06667,406.866667 1789.9,408.533333 1793.3,410 C1796.7,411.466667 1799.56667,413.333333 1801.9,415.6 C1804.23333,417.866667 1805.4,420.733333 1805.4,424.2 C1805.4,428.333333 1803.93333,431.566667 1801,433.9 C1798.06667,436.233333 1794.06667,437.4 1789,437.4 C1784.06667,437.4 1780.06667,436.033333 1777,433.3 C1773.93333,430.566667 1772.13333,426.6 1771.6,421.4 L1771.6,421.4 L1735.2,421.4 C1735.46667,430.6 1738.03333,438.466667 1742.9,445 C1747.76667,451.533333 1754.26667,456.466667 1762.4,459.8 C1770.53333,463.133333 1779.73333,464.8 1790,464.8 Z M1948.2,463.4 L1948.2,436 L1896.4,436 L1896.4,405.2 L1942.2,405.2 L1942.2,378.8 L1896.4,378.8 L1896.4,350.4 L1948.2,350.4 L1948.2,323 L1862.2,323 L1862.2,463.4 L1948.2,463.4 Z" id="GAMEBASE" stroke="#D4D1CC" stroke-width="1.2" fill-opacity="0" fill="#000000" fill-rule="nonzero" mask="url(#mask-2)"></path>
                    <rect id="fill_1" fill="#FAD551" mask="url(#mask-2)" x="960" y="225" width="100" height="3"></rect>
                    <rect id="fill_2" fill="#FAD551" mask="url(#mask-2)" x="1426" y="260" width="14" height="14"></rect>
                    <rect id="fill_3" fill="#FAD551" mask="url(#mask-2)" x="1196" y="338" width="14" height="14"></rect>
                </g>
            </g>
        </g>
    </g>
</svg>