<?xml version="1.0" encoding="UTF-8"?>
<svg width="22px" height="22px" viewBox="0 0 22 22" version="1.1" xmlns="http://www.w3.org/2000/svg" xmlns:xlink="http://www.w3.org/1999/xlink">
    <title>Buy JOJO_icon_White</title>
    <defs>
        <rect id="path-1" x="0" y="0" width="22" height="22"></rect>
    </defs>
    <g id="Buy-JOJO_icon_White" stroke="none" stroke-width="1" fill="none" fill-rule="evenodd">
        <g id="Buy-JOJO_icon">
            <mask id="mask-2" fill="white">
                <use xlink:href="#path-1"></use>
            </mask>
            <use id="Mask" fill="#000000" fill-rule="nonzero" opacity="0" xlink:href="#path-1"></use>
            <path d="M9.56827029,3.56378257 L9.56827029,6.15023529 C9.56827029,6.2024029 9.57693516,6.24914782 9.59125768,6.30011765 C9.82051995,7.1106653 11.8297505,7.74541176 14.275818,7.74541176 C16.721962,7.74541176 18.7311926,7.1106653 18.9604548,6.30011765 C18.9747773,6.24914782 18.9834422,6.2024029 18.9834422,6.15023529 L18.9834422,3.56378257 C18.9834422,2.64482208 16.8757634,1.9 14.275818,1.9 C11.676051,1.9 9.56827029,2.64482208 9.56827029,3.56378257 Z M17.2916772,4.18576737 C16.4789633,4.4539451 15.4078834,4.60168116 14.275818,4.60168116 C13.1438291,4.60168116 12.0727492,4.4539451 11.2600353,4.18576737 C10.9011567,4.06738994 10.6065766,3.92862459 10.4080746,3.78437998 C10.2550632,3.67329125 10.2034053,3.58995558 10.1948424,3.56378257 C10.2034053,3.53768602 10.2550632,3.45437583 10.4080746,3.34318517 C10.6065766,3.199017 10.9011567,3.06025165 11.2600353,2.94179777 C12.0727492,2.67359454 13.1438291,2.52585849 14.275818,2.52585849 C15.4078834,2.52585849 16.4789633,2.67359454 17.2917792,2.94179777 C17.6505558,3.06025165 17.9451359,3.199017 18.1436379,3.34318517 C18.2966493,3.45437583 18.3483072,3.53768602 18.3568702,3.56378257 C18.3483072,3.58985364 18.2966493,3.67329125 18.1436379,3.78437998 C17.9451359,3.92862459 17.6505558,4.06738994 17.2916772,4.18576737 Z M14.2758945,8.452 C13.5019941,8.452 12.7738901,8.37616793 12.1298864,8.25929412 C10.61017,7.98344539 9.56827029,7.53442306 9.56827029,6.88894118 L9.56827029,7.82582854 C9.00191907,7.74050504 8.37853258,7.69323053 7.72400355,7.69323053 C5.12413461,7.69323053 3.01635389,8.43805263 3.01635389,9.35701311 L3.01635389,11.7815294 C3.01635389,11.8336971 3.02501874,11.8804419 3.03934127,11.9314118 C3.26870549,12.7419595 5.27783414,13.3767059 7.72400355,13.3767059 C8.37863453,13.3767059 9.00202099,13.3302712 9.56827029,13.2482353 C9.65825753,13.235187 9.74676663,13.2203459 9.83377214,13.2054118 C9.97044772,13.1821185 10.1033515,13.1581472 10.2319739,13.1304706 C11.4318546,12.8732513 12.2656955,12.4364463 12.4085384,11.9314118 C12.4228864,11.8804419 12.4315258,11.8336971 12.4315258,11.7815294 L12.4315258,12.5298849 C12.4315258,13.0509239 11.7524038,13.4474437 10.6910082,13.7260957 C10.5354992,13.766999 10.3717332,13.8052264 10.2007039,13.8410582 C10.0932085,13.8635613 9.9829863,13.8850706 9.87001167,13.905586 C9.77143603,13.9233999 9.67069416,13.9400161 9.56827029,13.9555364 C9.00171517,14.0412676 8.37942457,14.08974 7.72400355,14.08974 C6.9500777,14.08974 6.22197373,14.0224343 5.57799545,13.905586 C4.0582536,13.6296098 3.01635389,13.1752648 3.01635389,12.5297829 L3.01635389,15.32795 C3.01635389,15.3801176 3.02501874,15.4316736 3.03934127,15.4826434 C3.26870549,16.293191 5.27793606,16.9272302 7.72400355,16.9272302 C8.65091535,16.9272302 9.51490489,16.8361471 10.2433147,16.6789562 C11.437028,16.4213037 12.2661797,15.9860724 12.4086403,15.4826434 C12.4228864,15.4316736 12.4315258,15.3801176 12.4315258,15.32795 L12.4315258,16.0745882 C12.4315258,16.5936395 11.757985,16.9951989 10.7042348,17.2736471 C10.4472959,17.3415389 10.1678539,17.4015936 9.87001167,17.4556471 C9.22590597,17.5725209 8.497802,17.6376471 7.72400355,17.6376471 C6.95017964,17.6376471 6.22207567,17.5725209 5.57799545,17.4556471 C4.0582536,17.1796964 3.01635389,16.7200701 3.01635389,16.0745882 L3.01635389,18.5007197 C3.01635389,18.5528874 3.02512068,18.6044433 3.03944321,18.6554132 C3.26870549,19.4659608 5.27793606,20.1 7.72400355,20.1 C10.1701475,20.1 12.1792762,19.4659608 12.4086403,18.6554132 C12.4229629,18.6044433 12.4316278,18.5528874 12.4316278,18.5007197 L12.4316278,17.3258397 C12.997979,17.4079522 13.6212635,17.4533408 14.2759964,17.4533408 C16.7220639,17.4533408 18.7312945,16.8194035 18.9605568,16.0088814 C18.9748793,15.9579115 18.9836461,15.9062281 18.9836461,15.854086 L18.9836461,13.4302353 C18.9836461,14.0757172 17.9417464,14.5353435 16.4220045,14.8112941 C15.7779243,14.9281679 15.0498203,14.9932941 14.2759964,14.9932941 C13.6205754,14.9932941 12.9981829,14.9398234 12.4316278,14.8541176 L12.4316278,14.1618113 C12.997979,14.2438472 13.6212635,14.2893378 14.2759964,14.2893378 C16.7220639,14.2893378 18.7312945,13.6554006 18.9605568,12.8448529 C18.9748793,12.7938066 18.9836461,12.7422251 18.9836461,12.6900575 L18.9836461,10.2612941 C18.9836461,10.906776 17.9417464,11.3665042 16.4220045,11.6423529 C15.7779243,11.7592268 15.0498203,11.8243529 14.2759964,11.8243529 C13.6205754,11.8243529 12.9981829,11.7815881 12.4316278,11.6958824 L12.4316278,10.9977064 C12.997979,11.0798442 13.6213654,11.1252328 14.2759964,11.1252328 C16.7220639,11.1252328 18.7312945,10.4912956 18.9606587,9.68074798 C18.9749812,9.62977815 18.9836461,9.57812023 18.9836461,9.52595261 L18.9836461,6.88894118 C18.9834422,7.53442306 17.9416445,7.98344539 16.4219281,8.25929412 C15.7778224,8.37616793 15.0497184,8.452 14.2758945,8.452 Z M11.5916195,9.57761053 C11.3931175,9.72185514 11.0985629,9.86064598 10.7397863,9.9789979 C10.5062425,10.0560643 10.2511895,10.1231661 9.9795968,10.1796916 C9.88056241,10.2003089 9.77920891,10.2195245 9.67596955,10.2372365 C9.64034162,10.2434039 9.6044079,10.2493929 9.56827029,10.2551525 C8.99794341,10.3465413 8.37096358,10.3949372 7.72390162,10.3949372 C6.59191273,10.3949372 5.52083279,10.2472011 4.70801694,9.9789979 C4.34924035,9.86064598 4.05466022,9.72177868 3.85615823,9.57761053 C3.70314682,9.46652178 3.65148889,9.38310966 3.64292596,9.35701311 C3.65148889,9.3308401 3.70314682,9.24750445 3.85615823,9.1364157 C4.05466022,8.99217109 4.34924035,8.85338025 4.70801694,8.73502833 C5.52083279,8.46682509 6.59191273,8.31911454 7.72390162,8.31911454 C8.37096358,8.31911454 8.99794341,8.36748488 9.56827029,8.45887378 C9.99583067,8.52735174 10.3915604,8.62014232 10.7397863,8.73502833 C11.0985629,8.85338025 11.3931175,8.99217109 11.5916195,9.13631374 C11.7447329,9.24750445 11.7963144,9.3308401 11.8048773,9.35701311 C11.7963144,9.38318611 11.7447329,9.46652178 11.5916195,9.57761053 L11.5916195,9.57761053 Z" id="形状" fill="#431216" fill-rule="nonzero" mask="url(#mask-2)"></path>
        </g>
    </g>
</svg>