<?xml version="1.0" encoding="UTF-8"?>
<svg width="22px" height="22px" viewBox="0 0 22 22" version="1.1" xmlns="http://www.w3.org/2000/svg" xmlns:xlink="http://www.w3.org/1999/xlink">
    <title>Crypto Knights _icon_White</title>
    <g id="Crypto-Knights-_icon_White" stroke="none" stroke-width="1" fill="none" fill-rule="evenodd">
        <g id="Crypto-Knights" fill-rule="nonzero">
            <rect id="bg" fill="#000000" opacity="0" x="0" y="0" width="22" height="22"></rect>
            <path d="M6.33906868,2.93748334 L6.54916493,2.94429067 C6.68657803,2.95362856 6.81840146,2.9722916 6.94450449,3.00022875 L7.12955169,3.04928299 C7.39002337,3.12979123 7.62339376,3.2536212 7.82833752,3.42025569 C7.90770166,3.48480346 7.98237422,3.5553463 8.05275652,3.6322055 C8.0957994,3.67918974 8.13642618,3.72770129 8.17476961,3.77748597 C8.18486258,3.79047753 8.19485491,3.80373968 8.20468964,3.81708637 C8.23023218,3.85189098 8.25482267,3.88730803 8.27838397,3.9232169 C8.29561415,3.94929072 8.31192915,3.97521075 8.32773399,4.00135149 C8.34086638,4.0233048 8.35391672,4.04565801 8.36660932,4.06815154 C8.38410741,4.09888351 8.40080252,4.12991025 8.41685296,4.16115175 C8.42630003,4.17986432 8.43564646,4.19858509 8.44476879,4.21737209 C8.46129529,4.25104281 8.4770519,4.28520144 8.49210779,4.31951648 C8.50296746,4.34469074 8.51336199,4.36929527 8.52341042,4.39395749 C8.56132493,4.4867132 8.59431513,4.58043919 8.62299416,4.67387668 C8.85923327,4.5138333 9.11743942,4.36068158 9.39499402,4.21418893 C9.96225958,3.91497946 10.6192195,3.76332065 11.3490989,3.76332065 C12.4148187,3.76332065 13.5873501,4.09744931 14.5661143,4.68046274 C15.5054022,5.23941966 16.1188591,5.93939485 16.2789522,6.62481459 C16.4700579,6.80240382 16.8809861,7.19560253 17.2966575,7.66810702 C18.1063033,8.58833021 18.4996577,9.31033569 18.5,9.87486249 C18.5,10.627679 17.6879578,11.6307497 17.0772144,12.3195477 C16.5876418,12.8715168 16.1040343,13.344822 15.8731573,13.565187 L15.874899,14.8778914 L15.9689083,14.9359255 C16.078856,15.0045115 16.1843418,15.0718621 16.2857016,15.1383916 C16.953836,15.5760135 17.4453442,15.9787277 17.7793639,16.3605873 C18.2254394,16.8699966 18.3894226,17.3540724 18.2668631,17.7998055 C18.1381414,18.2674487 17.7191112,18.6156135 17.0217546,18.8340295 C16.5585619,18.9791838 15.9728097,19.0627159 15.4151298,19.0627159 C14.8023323,19.0627159 14.2354091,18.7871283 13.5784492,18.4684051 C12.500405,17.9456444 11.0238712,17.2287741 8.36556279,17.2287741 C7.84725255,17.2287741 7.29676189,17.2565041 6.72881164,17.3109369 C6.55832386,17.3273695 6.39434064,17.2424679 6.30841206,17.0945749 C6.22248348,16.9463395 6.23172679,16.7618156 6.33032213,16.6221389 C6.34230421,16.6050216 7.56447564,14.8669364 8.01568626,13.2572305 C8.11633568,12.898453 7.78494578,12.1641231 7.46382622,11.4537573 C7.00953449,10.4479479 6.444323,9.19633482 6.51792716,7.923154 C6.55900855,7.2093648 6.79865001,6.54829672 7.23000463,5.95912109 C7.3148469,5.84294399 7.40775385,5.72881576 7.508603,5.6168239 C7.3664526,5.53600424 7.21833264,5.48439934 7.07584086,5.48439934 C6.504678,5.48439934 6.41220781,5.81502013 6.31037103,6.6902983 C6.2629402,7.09565254 6.20933141,7.55501415 6.02239814,7.94841104 C5.79580631,8.4253101 5.41974759,8.72364603 4.87249944,8.86035842 C4.66902517,8.91137646 4.46654734,8.93728406 4.27064605,8.93728406 C3.45694824,8.93728406 2.71898033,8.49247056 2.13705586,7.65127084 C1.77355235,7.12600144 1.57959922,6.60541737 1.52670798,6.45133486 L1.52099388,6.43512693 C1.51560569,6.41915427 1.51254993,6.4092341 1.51188563,6.40631119 C1.47262566,6.28175544 1.53340886,6.14803239 1.65318167,6.09621719 C1.77255591,6.044402 1.91205835,6.09123496 1.97622947,6.20463052 C1.97842165,6.20841701 2.20102769,6.59862527 2.55217526,6.98046338 C2.82569969,7.27838081 3.23078489,7.62779257 3.66892977,7.69469575 L3.81606738,7.70607537 L3.9454725,7.69713688 C4.03143258,7.68497285 4.1165955,7.66070386 4.19989838,7.62456608 L4.2197922,7.61523077 L4.2197922,7.61523077 C4.34874864,7.54969569 4.42490185,7.41687968 4.46696793,7.23866635 L4.468,7.22928406 L4.48867643,7.12369657 C4.4945899,7.08359759 4.49923365,7.04178634 4.50276656,6.9984532 L4.51019167,6.86407849 L4.51148307,6.82702983 C4.51706316,6.56439536 4.49416882,6.26150766 4.47073241,5.95173252 C4.43802545,5.51755978 4.4031661,5.05497557 4.44240374,4.62455294 C4.44435655,4.60688307 4.44606509,4.5895409 4.44789972,4.57225528 C4.45853031,4.46878081 4.47406712,4.36709519 4.49522973,4.26830859 L4.50962879,4.20662552 L4.50962879,4.20662552 C4.51861268,4.16799465 4.52885392,4.1298878 4.54007882,4.09231658 L4.55462767,4.04672777 L4.55462767,4.04672777 C4.58667754,3.94679312 4.62636077,3.85099165 4.67466489,3.76026136 C4.68049806,3.74998699 4.6860578,3.73981603 4.69172915,3.72971115 C4.74692148,3.63070949 4.81322891,3.53800127 4.89202978,3.45304451 C5.17422329,3.1488849 5.59010295,2.97793905 6.13043093,2.94370614 L6.33886939,2.93728406 L6.33906868,2.93748334 Z M17.4774157,10.3123793 L16.5205616,10.3123793 L14.8221883,12.4106114 L15.3945891,12.811155 C15.6414198,12.5704865 16.0361435,12.1747358 16.4264167,11.7341378 C17.026205,11.0573219 17.3267839,10.6047419 17.4774157,10.3123793 Z M15.3952738,10.3123793 L14.7807646,10.3123793 L13.7622884,11.6680653 L14.1039486,11.9073644 L15.3952738,10.3123793 Z M11.0625562,9.00017095 C10.5795075,9.00017095 10.1871802,9.39215613 10.1871802,9.87520483 C10.1871802,10.3582535 10.5795075,10.7498962 11.0625562,10.7498962 C11.3876852,10.7498962 11.6714042,10.5724693 11.8221634,10.3091655 L13.0447334,11.1665299 L13.6862878,10.3127217 L11.9372475,10.3127217 C11.8995708,10.3127217 11.8634276,10.3077805 11.8286976,10.2986193 C11.8980323,10.171758 11.9372475,10.0280577 11.9372475,9.87520483 C11.9372475,9.39181378 11.5456049,8.99982883 11.0625562,9.00017095 Z M15.8060877,7.38190665 L15.2182814,7.69789103 L16.5301472,9.43734566 L17.4921365,9.43734566 C17.3336308,9.11622611 17.0409259,8.70335811 16.6448328,8.25248983 C16.3298754,7.89336999 16.0111523,7.57738561 15.8060877,7.38190665 Z M13.1251845,8.82386353 L11.9851758,9.43734566 L13.632882,9.43734566 L13.1251845,8.82386353 Z M14.4391043,8.11760592 L13.9108661,8.40140988 L14.7677555,9.43734566 L15.4343011,9.43734566 L14.4391043,8.11760592 Z" id="形状结合" fill="#431216"></path>
        </g>
    </g>
</svg>