<?xml version="1.0" encoding="UTF-8"?>
<svg width="60px" height="60px" viewBox="0 0 60 60" version="1.1" xmlns="http://www.w3.org/2000/svg" xmlns:xlink="http://www.w3.org/1999/xlink">
    <title>NFT</title>
    <defs>
        <circle id="path-1" cx="30" cy="30" r="30"></circle>
    </defs>
    <g id="页面-1" stroke="none" stroke-width="1" fill="none" fill-rule="evenodd">
        <g id="Home_4" transform="translate(-410.000000, -1930.000000)">
            <g id="JOJO-METAVERSE" transform="translate(0.000000, 945.000000)">
                <g id="FUN-METAVERSE" transform="translate(0.000000, 740.000000)">
                    <g id="NFT" transform="translate(272.000000, 181.000000)">
                        <g transform="translate(138.000000, 64.000000)">
                            <mask id="mask-2" fill="white">
                                <use xlink:href="#path-1"></use>
                            </mask>
                            <use id="蒙版" fill="#431216" opacity="0" xlink:href="#path-1"></use>
                            <path d="M41.8815326,12.2025096 L42.1075247,12.2816069 L42.2883183,12.3494045 L42.5143104,12.4737001 L42.6612052,12.5753965 L42.8645981,12.733591 L42.9888937,12.8691862 L43.0905902,12.9821822 L52.1302726,24.2817853 L52.2771675,24.5077773 L52.3336655,24.6433726 C52.3686297,24.7166794 52.3988248,24.7921671 52.4240623,24.8693647 C52.4516533,24.931523 52.4743221,24.9957514 52.4918599,25.0614579 C52.4973066,25.1329184 52.4973066,25.2046899 52.4918599,25.2761504 C52.5027134,25.347303 52.5027134,25.4196902 52.4918599,25.4908428 C52.4993773,25.6338724 52.4993773,25.7771981 52.4918599,25.9202277 C52.4982866,25.9916476 52.4982866,26.0635003 52.4918599,26.1349202 C52.4971373,26.2063871 52.4971373,26.2781458 52.4918599,26.3496127 C52.4692607,26.4174103 52.4127627,26.4739083 52.4127627,26.5304063 L52.4127627,26.5304063 L52.3110663,26.7563984 L52.1980703,26.9145928 L52.0285762,27.2309817 L31.6892907,47.1182831 L31.5988939,47.1973803 L31.5197966,47.2877771 L31.4068006,47.378174 L31.2486062,47.49117 L31.0113145,47.6267652 L30.8644196,47.6945628 C30.769368,47.7333584 30.6710496,47.7636102 30.57063,47.7849597 L30.57063,47.7849597 L30.4463343,47.7849597 C30.2999146,47.8016673 30.1520696,47.8016673 30.0056498,47.7849597 C29.8443114,47.7746829 29.6848856,47.744316 29.5310665,47.6945628 L29.5310665,47.6945628 L29.4067708,47.6945628 C29.3063512,47.6732134 29.2080328,47.6429616 29.1129812,47.604166 L29.1129812,47.604166 L28.9660863,47.5363684 L28.7287947,47.4007732 L28.5706002,47.2877771 L28.4576042,47.1973803 L28.378507,47.1069835 L28.2881101,47.0278863 L7.94882462,27.1405849 L7.8019298,26.937192 L7.68893379,26.7789976 L7.58723736,26.5530055 C7.56463814,26.4965075 7.5081401,26.4400095 7.5081401,26.3722118 C7.50286271,26.300745 7.50286271,26.2289863 7.5081401,26.1575194 C7.5017134,26.0860995 7.5017134,26.0142468 7.5081401,25.942827 C7.50062266,25.7997974 7.50062266,25.6564716 7.5081401,25.513442 C7.49728663,25.4422894 7.49728663,25.3699022 7.5081401,25.2987496 C7.50269335,25.2272891 7.50269335,25.1555176 7.5081401,25.0840571 C7.52567791,25.0183506 7.54834675,24.9541222 7.57593772,24.8919639 C7.60117524,24.8147663 7.63137032,24.7392787 7.66633456,24.6659718 L7.66633456,24.6659718 L7.75673141,24.5077773 L7.90362623,24.2817853 L16.9433087,12.9821822 L17.0450051,12.8691862 L17.1806004,12.733591 L17.3726936,12.5753965 L17.5195885,12.4737001 L17.7455805,12.3494045 L17.9263742,12.2816069 L18.1410666,12.2025096 L41.8815326,12.2025096 Z M35.695,23.3778171 L24.305,23.3778171 C23.2202381,23.3778171 22.6778572,23.920198 22.6778572,25.0049599 L22.6778572,25.0049599 L22.6823645,25.1717308 C22.7364524,26.1453121 23.2773309,26.6321027 24.305,26.6321027 L24.305,26.6321027 L35.695,26.6321027 C36.7797619,26.6321027 37.3221428,26.0897218 37.3221428,25.0049599 L37.3221428,25.0049599 L37.3176355,24.838189 C37.2635476,23.8646077 36.7226691,23.3778171 35.695,23.3778171 L35.695,23.3778171 Z" id="形状结合" fill="#431216" fill-rule="nonzero" mask="url(#mask-2)"></path>
                        </g>
                    </g>
                </g>
            </g>
        </g>
    </g>
</svg>