<?xml version="1.0" encoding="UTF-8"?>
<svg width="22px" height="22px" viewBox="0 0 22 22" version="1.1" xmlns="http://www.w3.org/2000/svg" xmlns:xlink="http://www.w3.org/1999/xlink">
    <title>Evolution_icon_White</title>
    <defs>
        <rect id="path-1" x="0" y="0" width="22" height="22"></rect>
    </defs>
    <g id="Evolution_icon_White" stroke="none" stroke-width="1" fill="none" fill-rule="evenodd">
        <g id="Evolution_icon">
            <mask id="mask-2" fill="white">
                <use xlink:href="#path-1"></use>
            </mask>
            <use id="Mask" fill="#000000" fill-rule="nonzero" opacity="0" xlink:href="#path-1"></use>
            <path d="M18.071077,3.92893219 C19.4552157,5.31307093 19.0628016,8.10221606 17.3259684,10.9999659 C19.0628016,13.8977839 19.4552157,16.6869291 18.071077,18.0710678 C16.6869382,19.4552066 13.8977931,19.0627924 11.0000432,17.3259593 C8.1022252,19.0627924 5.31308007,19.4552066 3.92894133,18.0710678 C2.54480259,16.6869291 2.93721673,13.8977839 4.67404986,11.0000341 C2.93721673,8.10221606 2.54480259,5.31307093 3.92894133,3.92893219 C5.31308007,2.54479345 8.1022252,2.93720759 10.999975,4.67404072 C13.8977931,2.93720759 16.6869382,2.54479345 18.071077,3.92893219 Z M15.8088827,13.1367606 L15.6362328,13.3422958 C15.2933683,13.7460504 14.9260673,14.1450096 14.535543,14.5355339 C14.0788064,14.9922705 13.6105321,15.4172414 13.1365426,15.8085056 C14.5822012,16.6060504 15.7697391,16.8368717 16.30331,16.3033009 C16.8368809,15.76973 16.6060595,14.5821921 15.8088827,13.1367606 Z M6.1915035,13.1365335 L6.14823559,13.2153081 C5.38582159,14.6251394 5.17283423,15.7794268 5.69670828,16.3033009 C6.23020602,16.8367986 7.41749154,16.6061136 8.86265418,15.8092013 C8.38938541,15.41715 7.92116273,14.9922214 7.46447524,14.5355339 C7.0077386,14.0787973 6.58276774,13.610523 6.1915035,13.1365335 Z M11.0002001,7.64514089 L10.9557711,7.68048811 C10.3842592,8.14048156 9.80374115,8.66073408 9.23224219,9.23223305 C8.64605517,9.81842007 8.1137826,10.4140958 7.64515003,10.999809 C8.1137826,11.5859042 8.64605517,12.1815799 9.23224219,12.767767 C9.81842921,13.353954 10.4141049,13.8862265 10.9998182,14.3548591 C11.5859134,13.8862265 12.1815891,13.353954 12.7677761,12.767767 C13.3539631,12.1815799 13.8862357,11.5859042 14.3548683,11.000191 C13.8862357,10.4140958 13.3539631,9.81842007 12.7677761,9.23223305 C12.1815891,8.64604603 11.5859134,8.11377346 11.0002001,7.64514089 Z M11.0000091,9 C12.1045786,9 13.0000091,9.8954305 13.0000091,11 C13.0000091,12.1045695 12.1045786,13 11.0000091,13 C9.89543964,13 9.00000914,12.1045695 9.00000914,11 C9.00000914,9.8954305 9.89543964,9 11.0000091,9 Z M5.69670828,5.69669914 C5.16321055,6.23019688 5.3938955,7.41748239 6.19080783,8.86264504 C6.58285919,8.38937627 7.00778774,7.92115359 7.46447524,7.46446609 C7.92116273,7.0077786 8.38938541,6.58285005 8.86332266,6.19162066 C7.41749154,5.39388636 6.23020602,5.1632014 5.69670828,5.69669914 Z M13.2153173,6.14822645 L13.1365426,6.19149436 C13.6105321,6.5827586 14.0788064,7.00772945 14.535543,7.46446609 C14.9922305,7.92115359 15.4171591,8.38937627 15.8083885,8.86331352 C16.6061228,7.41748239 16.8368077,6.23019688 16.30331,5.69669914 C15.779436,5.17282509 14.6251485,5.38581244 13.2153173,6.14822645 Z" id="fill" fill="#431216" mask="url(#mask-2)"></path>
        </g>
    </g>
</svg>