<?xml version="1.0" encoding="UTF-8"?>
<svg width="22px" height="22px" viewBox="0 0 22 22" version="1.1" xmlns="http://www.w3.org/2000/svg" xmlns:xlink="http://www.w3.org/1999/xlink">
    <title>Community_icon</title>
    <defs>
        <rect id="path-1" x="0" y="0" width="22" height="22"></rect>
    </defs>
    <g id="Community_icon" stroke="none" stroke-width="1" fill="none" fill-rule="evenodd">
        <g>
            <mask id="mask-2" fill="white">
                <use xlink:href="#path-1"></use>
            </mask>
            <use id="Mask" fill="#000000" fill-rule="nonzero" opacity="0" xlink:href="#path-1"></use>
            <path d="M11.7130909,3.81035377 L17.7779515,7.67317556 C18.1655064,7.92008453 18.4,8.34757254 18.4,8.80679568 L18.4,17.0557864 C18.4,17.7981751 17.7976195,18.4 17.0545455,18.4 L4.94545456,18.4 C4.20238053,18.4 3.6,17.7981751 3.6,17.0557864 L3.6,8.69029718 C3.6,8.22507222 3.84065645,7.79288918 4.23640001,7.54771563 L10.2810788,3.80184042 C10.7206039,3.52951964 11.2774622,3.53300332 11.7135394,3.81080185 L11.7130909,3.81035377 Z M14.8121212,13.4573266 L7.18787881,13.4573266 L7.18787881,14.8015402 L14.8121212,14.8015402 L14.8121212,13.4573266 Z M14.8121212,11.2169706 L7.18787881,11.2169706 L7.18787881,12.5611842 L14.8121212,12.5611842 L14.8121212,11.2169706 Z" id="fill" fill="#431216" fill-rule="nonzero" mask="url(#mask-2)"></path>
        </g>
    </g>
</svg>