<?xml version="1.0" encoding="UTF-8"?>
<svg width="32px" height="32px" viewBox="0 0 32 32" version="1.1" xmlns="http://www.w3.org/2000/svg" xmlns:xlink="http://www.w3.org/1999/xlink">
    <title>mid</title>
    <g id="页面-1" stroke="none" stroke-width="1" fill="none" fill-rule="evenodd">
        <g id="Home_3_icon" transform="translate(-824.000000, -6622.000000)" fill="#807E76">
            <g id="联系方式" transform="translate(240.000000, 6497.000000)">
                <g id="icon" transform="translate(584.000000, 125.000000)">
                    <path d="M16,0 C24.836,0 32,7.164 32,16 C32,24.836 24.836,32 16,32 C7.164,32 0,24.836 0,16 C0,7.164 7.164,0 16,0 Z M6.8304,8.0928 C6.6924,8.1048 6.5884,8.1528 6.5124,8.2408 C6.4364,8.3268 6.4004,8.4428 6.4004,8.5908 L6.4004,8.5908 L6.4004,20.6028 C6.4004,20.7768 6.4504,20.9428 6.5504,21.1028 C6.6504,21.2628 6.7804,21.3788 6.9424,21.4528 L6.9424,21.4528 L11.9124,23.9268 C12.0244,23.9748 12.1444,24.0008 12.2684,24.0008 C12.4424,23.9888 12.5744,23.9248 12.6624,23.8068 C12.7504,23.6888 12.7944,23.5448 12.7944,23.3728 L12.7944,23.3728 L12.7944,10.9888 C12.7944,10.9768 12.7864,10.9588 12.7744,10.9348 L12.7744,10.9348 L7.2804,8.2408 C7.0804,8.1408 6.9324,8.0928 6.8304,8.0928 Z M25.6004,12.2448 L19.8244,21.5088 L24.5504,23.8348 C24.7124,23.9308 24.8784,23.9748 25.0464,23.9628 C25.2144,23.9508 25.3504,23.8928 25.4484,23.7868 C25.5504,23.6828 25.6004,23.5448 25.6004,23.3728 L25.6004,23.3728 L25.6004,12.2448 Z M13.4864,12.0588 L13.4864,18.3908 L19.2064,21.1948 L13.4864,12.0588 Z M19.4484,8.0008 C19.1984,8.0008 19.0204,8.1048 18.9064,8.3128 L18.9064,8.3128 L15.4184,13.8688 L19.6184,20.5308 C19.9184,20.0248 20.9844,18.3128 22.8164,15.3908 C24.6464,12.4688 25.5624,10.9968 25.5624,10.9708 C25.5624,10.9468 25.5504,10.9288 25.5244,10.9168 L25.5244,10.9168 L19.7304,8.0748 C19.6564,8.0248 19.5624,8.0008 19.4484,8.0008 Z" id="mid"></path>
                </g>
            </g>
        </g>
    </g>
</svg>