<?xml version="1.0" encoding="UTF-8"?>
<svg width="22px" height="22px" viewBox="0 0 22 22" version="1.1" xmlns="http://www.w3.org/2000/svg" xmlns:xlink="http://www.w3.org/1999/xlink">
    <title>Bounty_icon</title>
    <defs>
        <rect id="path-1" x="0" y="0" width="22" height="22"></rect>
    </defs>
    <g id="Bounty_icon" stroke="none" stroke-width="1" fill="none" fill-rule="evenodd">
        <g>
            <mask id="mask-2" fill="white">
                <use xlink:href="#path-1"></use>
            </mask>
            <use id="Mask" fill="#000000" fill-rule="nonzero" opacity="0" xlink:href="#path-1"></use>
            <path d="M14.5742774,3.7715129 C15.1514387,3.7715129 15.6456903,4.12742903 15.849071,4.63175806 L16.7258065,4.63175806 C17.4847526,4.63175806 18.1,5.24700547 18.1,6.00595161 L18.1,8.07457096 C18.1,9.60932259 17.0842873,10.9588062 15.6095032,11.383629 C14.9571232,13.0486115 13.4579267,14.2326668 11.6870968,14.4815194 L11.6870968,15.1328871 L12.9362387,15.1328871 L13.0397613,15.1351774 C14.2751613,15.1873968 15.2764903,16.1726935 15.3419935,17.4319129 L15.3630645,18.2284871 L6.65525807,18.2284871 L6.65525807,17.5413903 C6.65525808,16.2112107 7.7335817,15.1328871 9.0637613,15.1328871 L10.3129032,15.1328871 L10.3129032,14.4819774 C8.54191242,14.2329181 7.04260686,13.0487398 6.39003871,11.383629 C4.91543619,10.9586374 3.9,9.60919485 3.9,8.07457096 L3.9,6.00640967 C3.9,5.24746353 4.51524741,4.63221612 5.27419355,4.63221612 L6.15092903,4.63175806 C6.36070506,4.11190186 6.86513678,3.7715129 7.42572259,3.7715129 L14.5742774,3.7715129 Z M6.05107096,6.00595161 L5.27419355,6.00595161 L5.27419355,8.07457096 C5.27419355,8.72914515 5.57789032,9.31226129 6.05244516,9.69153871 L6.05152904,9.58068709 L6.05107096,6.00595161 Z M15.948471,9.58068709 L15.9475548,9.69108066 C16.4399071,9.29891589 16.7264538,8.70355989 16.7258075,8.07411291 L16.7258075,6.00686775 L15.948471,6.00640967 L15.948471,9.58114517 L15.948471,9.58068709 Z" id="fill" fill="#431216" fill-rule="nonzero" mask="url(#mask-2)"></path>
        </g>
    </g>
</svg>