<?xml version="1.0" encoding="UTF-8"?>
<svg width="22px" height="22px" viewBox="0 0 22 22" version="1.1" xmlns="http://www.w3.org/2000/svg" xmlns:xlink="http://www.w3.org/1999/xlink">
    <title>App Download_icon</title>
    <defs>
        <rect id="path-1" x="0" y="0" width="22" height="22"></rect>
    </defs>
    <g id="App-Download_icon" stroke="none" stroke-width="1" fill="none" fill-rule="evenodd">
        <g>
            <mask id="mask-2" fill="white">
                <use xlink:href="#path-1"></use>
            </mask>
            <use id="Mask" fill="#000000" fill-rule="nonzero" opacity="0" xlink:href="#path-1"></use>
            <path d="M11,3.195 C15.3105825,3.195 18.805,6.68941753 18.805,11 C18.805,15.3105825 15.3105825,18.805 11,18.805 C6.68941753,18.805 3.195,15.3105825 3.195,11 C3.195,6.68941753 6.68941753,3.195 11,3.195 Z M11.0099744,6.80242279 C10.6342705,6.80242279 10.3300501,7.10664324 10.3283876,7.48400958 L10.3283876,7.48400958 L10.3278328,12.7064228 L8.45485517,10.8337593 C8.18887007,10.5677742 7.75830671,10.5677742 7.49232162,10.8337593 C7.22633653,11.0997444 7.22633653,11.5303078 7.49232162,11.7962929 L7.49232162,11.7962929 L10.4295833,14.7341478 C10.4528532,14.7679464 10.4795221,14.8001174 10.50959,14.8301853 C10.6446286,14.9652239 10.8220875,15.0317044 10.9994439,15.0296269 C11.1762501,15.0317044 11.353709,14.9652239 11.4887476,14.8301853 C11.5182373,14.8006957 11.5444574,14.769183 11.567408,14.7360959 L11.567408,14.7360959 L14.506016,11.7962929 C14.7720011,11.5303078 14.7720011,11.0997444 14.506016,10.8337593 C14.2400309,10.5677742 13.8094675,10.5677742 13.5434824,10.8337593 L13.5434824,10.8337593 L11.6908328,12.6854228 L11.6915612,7.48400958 C11.6915612,7.10664324 11.3856784,6.80242279 11.0099744,6.80242279 Z" id="fill" fill="#431216" fill-rule="nonzero" mask="url(#mask-2)"></path>
        </g>
    </g>
</svg>