<?xml version="1.0" encoding="UTF-8"?>
<svg width="22px" height="22px" viewBox="0 0 22 22" version="1.1" xmlns="http://www.w3.org/2000/svg" xmlns:xlink="http://www.w3.org/1999/xlink">
    <title>Farms _icon_White</title>
    <g id="Farms-_icon_White" stroke="none" stroke-width="1" fill="none" fill-rule="evenodd">
        <g id="Farms" fill-rule="nonzero">
            <rect id="bg" fill="#000000" opacity="0" x="0" y="0" width="22" height="22"></rect>
            <path d="M18.9100607,8.38892635 L13.6046145,3.07948651 C13.1633492,2.637889 12.4347482,2.637889 11.9832209,3.07948651 C11.5419555,3.52108402 11.5419555,4.2502334 11.9832209,4.70210062 L13.0915153,5.81122925 L10.3207793,8.59432054 L9.2637949,7.53654046 C8.51467001,6.78685166 7.29349381,6.78685166 6.54436891,7.53654046 L4.38935208,9.69317946 C2.20354931,11.8806276 2.20354931,15.4236774 4.38935208,17.6111255 C6.57515486,19.7985737 10.1155396,19.7985737 12.3013424,17.6111255 L14.4563593,15.4544865 C15.2054842,14.7047977 15.2054842,13.4827023 14.4563593,12.7330135 L13.4096368,11.6855031 L16.1906347,8.90241183 L17.2989291,10.0115405 C17.7401944,10.453138 18.4687953,10.453138 18.9203227,10.0115405 C19.361588,9.55967324 19.361588,8.83052386 18.9100607,8.38892635 L18.9100607,8.38892635 Z M10.6183769,12.3119554 L6.62646479,16.3068724 C6.49305899,16.4403786 6.32886723,16.5019969 6.15441348,16.5019969 C5.97995974,16.5019969 5.81576798,16.4403786 5.68236218,16.3068724 C5.42581256,16.0501297 5.42581256,15.6290716 5.68236218,15.3620591 L9.6742743,11.3671421 C9.93082392,11.1103994 10.3515653,11.1103994 10.6183769,11.3671421 C10.8851885,11.6341546 10.8851885,12.0552127 10.6183769,12.3119554 Z" id="fill" fill="#431216"></path>
        </g>
    </g>
</svg>