<?xml version="1.0" encoding="UTF-8"?>
<svg width="60px" height="60px" viewBox="0 0 60 60" version="1.1" xmlns="http://www.w3.org/2000/svg" xmlns:xlink="http://www.w3.org/1999/xlink">
    <title>game</title>
    <defs>
        <circle id="path-1" cx="30" cy="30" r="30"></circle>
    </defs>
    <g id="页面-1" stroke="none" stroke-width="1" fill="none" fill-rule="evenodd">
        <g id="Home_4" transform="translate(-1210.000000, -1930.000000)">
            <g id="JOJO-METAVERSE" transform="translate(0.000000, 945.000000)">
                <g id="FUN-METAVERSE" transform="translate(0.000000, 740.000000)">
                    <g id="Games" transform="translate(1072.000000, 181.000000)">
                        <g id="game" transform="translate(138.000000, 64.000000)">
                            <mask id="mask-2" fill="white">
                                <use xlink:href="#path-1"></use>
                            </mask>
                            <use id="蒙版" fill="#431216" opacity="0" xlink:href="#path-1"></use>
                            <path d="M38.7300507,14.6674567 C48.265484,14.6674567 57.0424169,45.2241861 48.5905556,45.2241861 C43.1726957,45.2241861 38.4049791,36.338896 30.2781894,36.338896 C20.3093273,36.338896 19.3341126,45.3325433 11.9658232,45.3325433 C3.29724744,45.3325433 9.90703643,14.6674567 21.5012564,14.6674567 C28.1110455,17.4847438 32.3369761,17.8098154 38.7300507,14.6674567 Z M22.1513996,19.6518877 C19.009041,19.6518877 16.5168254,22.1441032 16.5168254,25.2864619 C16.5168254,28.4288206 19.009041,30.9210362 22.1513996,30.9210362 C25.1854012,30.9210362 27.7859739,28.4288206 27.7859739,25.2864619 C27.7859739,22.1441032 25.2937583,19.6518877 22.1513996,19.6518877 Z M38.1526573,26.8864619 C37.1217258,26.8864619 36.2859907,27.7221971 36.2859907,28.7531286 C36.2859907,29.7840601 37.1217258,30.6197953 38.1526573,30.6197953 C39.1835889,30.6197953 40.019324,29.7840601 40.019324,28.7531286 C40.019324,27.7221971 39.1835889,26.8864619 38.1526573,26.8864619 Z M22.1513996,21.7106745 C23.993472,21.7106745 25.6188299,23.2276753 25.6188299,25.1781048 C25.6188299,27.1285343 24.1018292,28.645535 22.1513996,28.645535 C20.2009701,28.645535 18.6839693,27.1285343 18.6839693,25.1781048 C18.6839693,23.2276752 20.2009701,21.7106745 22.1513996,21.7106745 Z M34.6856145,23.4197953 C33.654683,23.4197953 32.8189479,24.2555304 32.8189479,25.2864619 C32.8189479,26.3173935 33.654683,27.1531286 34.6856145,27.1531286 C35.7165461,27.1531286 36.5522812,26.3173935 36.5522812,25.2864619 C36.5522812,24.2555304 35.7165461,23.4197953 34.6856145,23.4197953 Z M41.6197001,23.4197953 C40.5887686,23.4197953 39.7530335,24.2555304 39.7530335,25.2864619 C39.7530335,26.3173935 40.5887686,27.1531286 41.6197001,27.1531286 C42.6506317,27.1531286 43.4863668,26.3173935 43.4863668,25.2864619 C43.4863668,24.2555304 42.6506317,23.4197953 41.6197001,23.4197953 Z M38.1526573,19.9531286 C37.1217258,19.9531286 36.2859907,20.7888637 36.2859907,21.8197953 C36.2859907,22.8507268 37.1217258,23.6864619 38.1526573,23.6864619 C39.1835889,23.6864619 40.019324,22.8507268 40.019324,21.8197953 C40.019324,20.7888637 39.1835889,19.9531286 38.1526573,19.9531286 Z" id="fill" fill="#431216" fill-rule="nonzero" mask="url(#mask-2)"></path>
                        </g>
                    </g>
                </g>
            </g>
        </g>
    </g>
</svg>